<svg xmlns="http://www.w3.org/2000/svg" width="64.797" height="51.297" viewBox="0 0 64.797 51.297">
  <g id="list" transform="translate(0)">
    <g id="Group_29" data-name="Group 29" transform="translate(18.899 5.4)">
      <g id="Group_28" data-name="Group 28">
        <path id="Path_63" data-name="Path 63" d="M193.881,96h-43.2a1.35,1.35,0,0,0,0,2.7h43.2a1.35,1.35,0,0,0,0-2.7Z" transform="translate(-149.333 -96)" fill="#56462e"/>
      </g>
    </g>
    <g id="Group_31" data-name="Group 31" transform="translate(18.899 24.299)">
      <g id="Group_30" data-name="Group 30">
        <path id="Path_64" data-name="Path 64" d="M193.881,245.333h-43.2a1.35,1.35,0,0,0,0,2.7h43.2a1.35,1.35,0,0,0,0-2.7Z" transform="translate(-149.333 -245.333)" fill="#56462e"/>
      </g>
    </g>
    <g id="Group_33" data-name="Group 33" transform="translate(18.899 43.198)">
      <g id="Group_32" data-name="Group 32">
        <path id="Path_65" data-name="Path 65" d="M193.881,394.667h-43.2a1.35,1.35,0,1,0,0,2.7h43.2a1.35,1.35,0,0,0,0-2.7Z" transform="translate(-149.333 -394.667)" fill="#56462e"/>
      </g>
    </g>
    <g id="Group_35" data-name="Group 35" transform="translate(0 37.798)">
      <g id="Group_34" data-name="Group 34">
        <path id="Path_66" data-name="Path 66" d="M6.75,352a6.75,6.75,0,1,0,6.75,6.75A6.757,6.757,0,0,0,6.75,352Zm0,10.8a4.05,4.05,0,1,1,4.05-4.05A4.055,4.055,0,0,1,6.75,362.8Z" transform="translate(0 -352)" fill="#56462e"/>
      </g>
    </g>
    <g id="Group_37" data-name="Group 37" transform="translate(0 18.899)">
      <g id="Group_36" data-name="Group 36">
        <path id="Path_67" data-name="Path 67" d="M6.75,202.667a6.75,6.75,0,1,0,6.75,6.75A6.757,6.757,0,0,0,6.75,202.667Zm0,10.8a4.05,4.05,0,1,1,4.05-4.05A4.055,4.055,0,0,1,6.75,213.466Z" transform="translate(0 -202.667)" fill="#56462e"/>
      </g>
    </g>
    <g id="Group_39" data-name="Group 39" transform="translate(0)">
      <g id="Group_38" data-name="Group 38">
        <path id="Path_68" data-name="Path 68" d="M6.75,53.333a6.75,6.75,0,1,0,6.75,6.75A6.757,6.757,0,0,0,6.75,53.333Zm0,10.8a4.05,4.05,0,1,1,4.05-4.05A4.055,4.055,0,0,1,6.75,64.133Z" transform="translate(0 -53.333)" fill="#56462e"/>
      </g>
    </g>
  </g>
</svg>
