<svg xmlns="http://www.w3.org/2000/svg" width="18.207" height="18.207" viewBox="0 0 18.207 18.207">
  <g id="Group_2" data-name="Group 2" transform="translate(-35 -31)">
    <g id="Path_3" data-name="Path 3" transform="translate(35 31)" fill="none">
      <path d="M8,0A8,8,0,1,1,0,8,8,8,0,0,1,8,0Z" stroke="none"/>
      <path d="M 8 2 C 4.691590309143066 2 2 4.691590309143066 2 8 C 2 11.30841064453125 4.691590309143066 14 8 14 C 11.30841064453125 14 14 11.30841064453125 14 8 C 14 4.691590309143066 11.30841064453125 2 8 2 M 8 0 C 12.41827964782715 0 16 3.581720352172852 16 8 C 16 12.41827964782715 12.41827964782715 16 8 16 C 3.581720352172852 16 0 12.41827964782715 0 8 C 0 3.581720352172852 3.581720352172852 0 8 0 Z" stroke="none" fill="#ffeac9"/>
    </g>
    <path id="Path_2" data-name="Path 2" d="M0,0,4.019,4.019" transform="translate(48.481 44.481)" fill="none" stroke="#ffeac9" stroke-width="2"/>
  </g>
</svg>
