<svg xmlns="http://www.w3.org/2000/svg" width="223.5" height="59.388" viewBox="0 0 223.5 59.388">
  <g id="_170-1705826_free-photo-editing-effects-" data-name="170-1705826_free-photo-editing-effects-" transform="translate(-21.6 222)">
    <path id="Path_12" data-name="Path 12" d="M380.916-220.739c-.813,1.261-.813,1.289-.5,3.588.392,3.027,1.065,10.931,1.317,15.248l.2,3.448h.729c1.6,0,1.57.14,1.093-7.484-.252-3.812-.42-7.007-.336-7.063.056-.056.364.112.673.392,1.121,1.037,1.065.645-1.149-6.671A12.7,12.7,0,0,0,381.9-222,4.047,4.047,0,0,0,380.916-220.739Z" transform="translate(-258.105)" fill="#ffeac9"/>
    <path id="Path_13" data-name="Path 13" d="M229.462-220.128c-1.009.364-5.3,1.85-9.53,3.307-16.144,5.578-28.617,10.4-35.736,13.818a4.467,4.467,0,0,0-2.8,3.56c-.2.7.084.617,5.662-1.962a358.087,358.087,0,0,1,36.185-14.014c8.493-2.859,8.465-2.831,8.465-4.737C231.7-220.969,231.76-220.969,229.462-220.128Z" transform="translate(-114.975 -0.891)" fill="#ffeac9"/>
    <path id="Path_14" data-name="Path 14" d="M134.583-218.963c-1.205,1.962-1.261,2.074-.981,3.139.561,2.1.757,4.569.813,10.679.028,5.241-.028,6.306-.336,6.222-.224-.056-1.822-.645-3.56-1.317A33.96,33.96,0,0,0,127.1-201.5c-.168,0-.28.813-.28,1.822,0,1.682.056,1.85.7,2.158.392.168.7.392.7.5,0,.28-17.125,4.4-24.525,5.886-11.548,2.3-15.948,2.635-25.646,1.962-11.1-.785-16.537-2.27-20.125-5.522a23.757,23.757,0,0,1-3.251-4.148c-2.018-3.251-2.579-3.616-4.26-2.747A7.182,7.182,0,0,0,48-199.119c-2.635,3.812-3.167,6.839-1.766,10.343a8.251,8.251,0,0,1,.645,1.99c-.28.28-14.6,8.044-17.434,9.418-3.419,1.682-4.232,1.906-5.3,1.317a2.3,2.3,0,0,1-1.317-2.354c0-1.542.392-2.579,2.775-7.372,1.289-2.579,1.99-4.316,1.934-4.765-.084-.645-.28-.476-1.71,1.57-2.915,4.148-4.232,7.456-4.232,10.651.028,3.672,1.71,5.69,4.709,5.69a4.991,4.991,0,0,0,2.635-.729l1.261-.757-.168.673c-.112.364-.336,1.57-.533,2.663a5.045,5.045,0,0,0,.14,3.251,7.682,7.682,0,0,0,1.486,2.214c.925.9,1.093.953,2.859.953,2.1,0,2.186-.056,8.717-4.288,5.353-3.448,11.94-6.531,13.958-6.475a11.5,11.5,0,0,1,2.607.476c1.177.392,1.57.645,1.738,1.177,1.093,3.84,1.542,4.961,2.27,5.8a5.856,5.856,0,0,0,2.579,1.766c.392,0,1.009-2.074.841-2.831-.112-.448-.112-.813-.056-.813.084,0,1.626.561,3.448,1.261,8.3,3.223,21.694,5.69,34.167,6.306,15.5.785,19.564.925,21.19.729.981-.112,5.382-.308,9.782-.448a433.033,433.033,0,0,0,44.509-4.2c9.053-1.514,23.32-4.457,32.934-6.839,2.635-.645,3.924-.841,3.98-.617a16.442,16.442,0,0,0,.561,1.626c1.065,3,3.251,3.251,6.783.813,2.074-1.457,2.1-1.457,2.523-.869.869,1.233,1.57,1.682,2.663,1.682,1.373,0,2.495-.561,4.176-2.158l1.373-1.261,1.429,1.289c1.766,1.6,3.139,2.018,5.045,1.57a3.915,3.915,0,0,0,3.223-2.663c.7-1.85.392-3.9-1.429-9.249-.841-2.523-1.542-4.653-1.542-4.737s.448-.168.981-.168c.981,0,.981,0,.645-.841a15.654,15.654,0,0,0-2.943-4.036c-.2-.084-.589.5-.925,1.457l-.617,1.6,2.018,6.727c1.71,5.746,1.962,6.9,1.738,7.708-.224.953-.28.981-1.654.953a5.968,5.968,0,0,1-4.989-2.887l-.617-1.261-.617,1.177c-.925,1.794-2.859,3.7-3.784,3.7-1.514,0-2.831-2.27-1.99-3.532.533-.841.533-.925-.112-.757a9.767,9.767,0,0,0-2.158,1.962c-1.85,2.13-3.56,3.027-5.073,2.8-1.878-.308-2.8-1.345-3.055-3.391a2.993,2.993,0,0,0-.224-.925c-.056-.056-2.354.533-5.1,1.317-7.68,2.158-25.7,5.55-37.951,7.147a391.022,391.022,0,0,1-55.272,3.419c-24.329-.28-34.195-1.57-47.088-6.082-4.709-1.654-6.306-2.607-7.568-4.457-1.289-1.906-2.775-3.672-3.055-3.672-.14,0-.336.392-.448.869-.112.617-.28.813-.617.673-.252-.112-1.205-.392-2.158-.645-3.055-.813-4.653-.168-16.509,6.643-5.606,3.223-8.324,4.513-9.558,4.513-.561,0-1.457-1.345-1.626-2.467a10.553,10.553,0,0,1,1.093-5.017c.476-.7,8.745-5.69,11.968-7.231a18.253,18.253,0,0,1,3.9-1.317c1.738-.28,1.878-.252,4.288.729,1.4.561,2.551,1.009,2.607,1.009a5.513,5.513,0,0,0,.5-1.037,2.365,2.365,0,0,0,.14-1.934c-.252-.785-.7-1.121-2.747-2.13-4.288-2.13-6.054-4.485-5.353-7.091.7-2.523,3.419-5.045,4.709-4.344a12.745,12.745,0,0,1,2.13,2.943c2.158,3.588,3.616,5.157,6.026,6.447,2.523,1.289,8.044,2.719,13.2,3.363,3.644.448,4.036.448,10.651-.112,8.633-.757,9.362-.757,9.081-.112a39.476,39.476,0,0,0-2.579,8.885c-.2,2.551.28,3.616,1.962,4.4,1.486.673,2.41.673,4.765-.028a25.378,25.378,0,0,0,7.792-4.148,54.142,54.142,0,0,1,13.145-6.362c3.56-1.177,4.2-1.486,5.41-2.635a6.456,6.456,0,0,0,2.438-4.232c.168-.841.392-1.766.476-2.046.112-.448-.028-.5-1.233-.42l-1.345.084-.14,2.018a9.941,9.941,0,0,1-.28,2.13c-.084.084-2.158.869-4.625,1.738-2.467.9-5.774,2.214-7.343,2.943a131.39,131.39,0,0,0-12.277,7.175c-2.242,1.682-4.485,2.158-6.11,1.345-1.149-.589-1.317-.869-1.317-2.13,0-1.654,2.747-8.773,3.588-9.305.392-.252,29.206-7.119,31.869-7.6a56.445,56.445,0,0,1,6.166-.617,18.12,18.12,0,0,1,7.231.729c1.99.476,3.756.869,3.924.869.364,0,2.074-2.971,1.85-3.2-.084-.084-2.242-.645-4.821-1.233s-4.737-1.149-4.793-1.205-.2-2.915-.308-6.362l-.224-6.222.925.2c.729.14.9.084.813-.224-.084-.224-.7-2.326-1.4-4.653A26.954,26.954,0,0,0,135.452-220,3.305,3.305,0,0,0,134.583-218.963Z" transform="translate(0 -1.439)" fill="#ffeac9"/>
    <path id="Path_15" data-name="Path 15" d="M450.869-218.927a8.326,8.326,0,0,0-.869,1.542c0,.224,1.037.533,1.85.533,1.205,0,3.447.841,3.307,1.233a9.5,9.5,0,0,1-2.438,1.6c-1.878,1.009-2.158,1.261-1.57,1.317,2.607.308,7.371-3.644,6.867-5.662-.2-.757-2.242-1.542-4.709-1.766l-1.6-.168Z" transform="translate(-308.326 -1.224)" fill="#ffeac9"/>
    <path id="Path_16" data-name="Path 16" d="M494.709-210.664c.056.2.364,1.345.645,2.579l.5,2.186-.645.533c-1.738,1.4-3.672-.533-2.859-2.831.42-1.233,0-2.242-.869-2.046a58.578,58.578,0,0,0-7.091,2.382c-2.775,1.177-6.839,3.56-7.175,4.2-.757,1.4,0,1.205,3.672-.953a26.127,26.127,0,0,1,9.614-3.756l1.317-.168v2.1c0,2.27.336,3.448,1.093,3.616a2.752,2.752,0,0,0,2.663-1.149l.561-.813,1.065.869c1.289,1.037,1.822.869,2.439-.729.336-.869.308-1.205-.112-2.551a8.389,8.389,0,0,0-.869-2.046c-.308-.448-.364-.42-.561.308a2.885,2.885,0,0,0,.42,2.046c.5,1.037.533,1.233.168,1.373a1.238,1.238,0,0,1-.841,0c-.561-.2-1.514-2.3-1.542-3.307,0-1.261-.477-2.186-1.149-2.186C494.793-211,494.625-210.86,494.709-210.664Z" transform="translate(-327.725 -7.917)" fill="#ffeac9"/>
    <path id="Path_17" data-name="Path 17" d="M404.923-203c-1.794,1.878-2.41,5.185-1.317,6.979.645,1.065,1.429,1.177,2.27.336.729-.729.561-1.205-.477-1.373-1.093-.2-1.149-.785-.28-3.952a24.393,24.393,0,0,0,.645-2.691A3.075,3.075,0,0,0,404.923-203Z" transform="translate(-274.544 -13.166)" fill="#ffeac9"/>
    <path id="Path_18" data-name="Path 18" d="M343.554-202.089a7.764,7.764,0,0,0-1.429,2.523,4.878,4.878,0,0,1-.869,1.738c-.14,0-.533-.477-.925-1.065-.869-1.373-1.4-1.794-2.186-1.682-.533.056-.645.252-.645,1.065,0,.841.112.981.869,1.121,1.261.28,1.457.448,2.242,2.018.392.757.785,1.345.841,1.261a8.944,8.944,0,0,0,.561-1.794c.533-2.158,1.205-3.672,1.71-3.84a1.356,1.356,0,0,1,1.009.252c.813.589,1.233.533,1.626-.2.28-.533.224-.7-.561-1.4C344.7-203.07,344.507-203.07,343.554-202.089Z" transform="translate(-227.358 -13.801)" fill="#ffeac9"/>
    <path id="Path_19" data-name="Path 19" d="M471.712-201.907c-.841,1.065-.841,1.121-.477,2.186.392,1.093.785,4.316,1.85,15.079.729,7.287.729,7.848-.084,8.661-.533.533-6.222,2.971-8.6,3.672-.392.14-3.139,1.738-6.138,3.588-7.091,4.372-8.969,5.438-11.155,6.25-2.382.9-3.055.869-3.588-.168a4.783,4.783,0,0,1-.42-1.037A9.355,9.355,0,0,1,445-165.358a26.782,26.782,0,0,0,2.551-2.158c.617-.645.813-.7,2.13-.561,1.261.168,1.57.084,2.074-.42a2.261,2.261,0,0,0,.589-1.373,3.9,3.9,0,0,0-1.822-2.915c-.617-.28-.813-.224-1.542.476a6.327,6.327,0,0,0-1.289,2.214c-.392,1.205-.729,1.654-2.27,2.8a6.156,6.156,0,0,1-1.934,1.205c-.448-.42.589-4.344,1.71-6.615a19.6,19.6,0,0,0,1.149-2.495c-.28-.252-1.121.476-1.962,1.738a15.534,15.534,0,0,0-2.495,6.671l-.336,2.27-6.138,3.419a65.139,65.139,0,0,0-6.278,3.728c-.28.869,1.822.112,6.867-2.467,3.055-1.542,5.634-2.8,5.746-2.8s.224.2.224.42a4.8,4.8,0,0,0,1.794,2.915,4.547,4.547,0,0,0,2.354.252c2.13-.2,4.513-1.457,9.081-4.793,4.849-3.5,6.054-4.2,9.81-5.634,1.794-.673,4.4-1.822,5.8-2.551,4.372-2.242,4.709-3.532,3.924-13.846-.28-3.644-.533-7.259-.533-8.072,0-1.373.028-1.457.785-1.542q.757-.084.673-.5A52.548,52.548,0,0,0,472.749-203,4.76,4.76,0,0,0,471.712-201.907Z" transform="translate(-293.292 -13.675)" fill="#ffeac9"/>
    <path id="Path_20" data-name="Path 20" d="M201.443-193.82c-.925,1.822-1.065,3.728-.336,4.877,1.065,1.6,3.56.561,4.541-1.85l.476-1.205-.869-.757c-1.065-.953-1.822-.981-2.41-.168-.42.617-.42.645.617.953,1.233.336,1.457.785.757,1.542a1.834,1.834,0,0,1-2.3.2c-.476-.476-.42-1.682.112-3C202.788-195.137,202.368-195.557,201.443-193.82Z" transform="translate(-128.859 -19.492)" fill="#ffeac9"/>
    <path id="Path_21" data-name="Path 21" d="M613.742-189.627c-.617,1.289-.645,1.486-.336,3.7.476,3.588,1.065,10.315,1.6,18.05.252,3.84.5,7.063.561,7.091.028.056.336.028.7-.084.617-.2.617-.224.42-5.017-.112-2.635-.252-5.353-.308-6.054s-.2-2.971-.28-5.045-.224-4.316-.336-4.989l-.14-1.205,1.009.168,1.009.2-.869-2.326c-.477-1.289-1.149-3.139-1.457-4.12a6.873,6.873,0,0,0-.757-1.738A3.886,3.886,0,0,0,613.742-189.627Z" transform="translate(-425.793 -22.311)" fill="#ffeac9"/>
    <path id="Path_22" data-name="Path 22" d="M637.658-186.469a14.639,14.639,0,0,0-.056,2.859l.084,2.635-1.373,1.457c-1.317,1.4-1.6,2.186-1.177,3.279.448,1.149,3.335.28,8.24-2.495a24.888,24.888,0,0,1,4.709-2.13c1.57-.364,1.99-.673,1.514-1.149-.533-.533-2.1.028-5.241,1.794-2.915,1.626-7.792,3.476-8.3,3.139-.477-.28-.252-.757.869-1.962a5.53,5.53,0,0,0,1.121-1.514c0-.14.617-.28,1.4-.28,1.065,0,1.457-.112,1.682-.533.5-.981.308-1.626-1.149-3.335C638.555-186.413,637.91-186.89,637.658-186.469Z" transform="translate(-441.44 -25.469)" fill="#ffeac9"/>
    <path id="Path_23" data-name="Path 23" d="M443.385-179.243c-.561.561-.981,1.514-2.018,4.4-.112.308-.336.112-.785-.617-1.009-1.654-1.6-2.186-2.466-2.186-.953,0-1.261.589-.9,1.654.224.589.448.729,1.233.729.925,0,1.037.112,1.85,1.822l.869,1.794.757-2.41a11.856,11.856,0,0,1,1.4-3.2c.617-.729.673-.757,1.317-.308.869.645,1.289.589,1.514-.112.14-.42-.028-.813-.589-1.4C444.618-180.056,444.226-180.084,443.385-179.243Z" transform="translate(-299.019 -30.34)" fill="#ffeac9"/>
    <path id="Path_24" data-name="Path 24" d="M295.223-178.639a2.952,2.952,0,0,0,.112,1.317c.477,1.682.392,2.158-.533,2.691-.645.392-.953.42-1.4.2-.448-.252-.561-.589-.561-1.822s-.084-1.486-.42-1.373c-.308.112-.42.589-.42,1.654,0,3.476,1.457,4.709,3.5,2.915l.981-.869.869.729a3.358,3.358,0,0,0,1.233.729c.476,0,1.514-1.289,1.71-2.13.2-.729-1.486-4.4-1.878-4.148s-.308.785.448,2.242c.392.757.589,1.457.448,1.6-.589.589-1.345-.056-2.382-1.99C295.84-178.891,295.56-179.2,295.223-178.639Z" transform="translate(-194.611 -31.029)" fill="#ffeac9"/>
    <path id="Path_25" data-name="Path 25" d="M153.108-177.458a14.722,14.722,0,0,0-1.177,2.41c-.42,1.037-.869,1.878-.981,1.822a8.872,8.872,0,0,1-1.177-1.345c-.757-.981-1.121-1.261-1.766-1.261-.925,0-1.149.5-.841,1.738.14.617.28.673.981.533.981-.168,1.626.5,2.242,2.326.2.617.448,1.149.561,1.149a6.845,6.845,0,0,0,.673-1.878c.925-3.5,1.99-4.793,2.971-3.588.5.589.813.533,1.177-.28.28-.617.224-.813-.336-1.4A1.51,1.51,0,0,0,153.108-177.458Z" transform="translate(-90.278 -31.733)" fill="#ffeac9"/>
    <path id="Path_26" data-name="Path 26" d="M254.354-168.272c-1.457,3.251-1.654,3.924-1.654,5.438.028,2.074.925,3.98,2.13,4.4.645.224.869.168,1.57-.5.925-.9,2.943-4.485,2.775-4.989-.056-.168-.645.224-1.261.841-1.345,1.373-2.046,1.457-2.859.448-.841-1.065-.757-2.859.28-5.718,1.037-2.887,1.233-3.644.925-3.644A19.332,19.332,0,0,0,254.354-168.272Z" transform="translate(-166.326 -35.986)" fill="#ffeac9"/>
    <path id="Path_27" data-name="Path 27" d="M392.883-171.355c-2.158,1.429-2.887,4.036-1.57,5.55.336.392,1.85,1.766,3.363,3.027a22.353,22.353,0,0,1,2.719,2.551,12.147,12.147,0,0,1-2.719,1.57c-3.167,1.514-7.708,4.625-17.742,12.136-7.82,5.858-12.192,8.409-15.528,9-2.41.42-2.579.392-3.756-.673l-1.037-.953v-2.635a25.139,25.139,0,0,1,.224-3.784c.308-1.738-.448-1.317-1.205.7-1.205,3.223-1.233,7.708-.056,9.305a6.369,6.369,0,0,0,1.486,1.345c.813.561,1.205.645,2.775.533,2.523-.14,4.372-.953,9.474-4.036,4.793-2.887,8.212-5.353,15.7-11.38a50.173,50.173,0,0,1,8.016-5.55,34.726,34.726,0,0,1,6.531-2.775,2.9,2.9,0,0,1,.084.869c0,1.738,1.345,3.111,3.868,4.008,1.037.364,1.205.364,1.6,0,.617-.645.533-2.579-.28-5.157a8.094,8.094,0,0,1-.589-2.495c.084-.112,2.943-1.205,6.362-2.41a63.018,63.018,0,0,0,6.783-2.663c.42-.364.589-.813.589-1.85L418-168.5l-6.447-1.289C403.394-171.439,399.5-172,396.331-172,394.2-172,393.7-171.916,392.883-171.355Zm8.717,3.279c5.353.645,10.511,1.654,10.174,1.99-.28.28-10.4,4.176-10.875,4.176a1.791,1.791,0,0,1-.869-.589,21.422,21.422,0,0,0-3.2-2.158c-2.607-1.542-4.2-2.8-4.2-3.391,0-.14.673-.336,1.486-.392.785-.056,1.766-.112,2.158-.14S399.05-168.384,401.6-168.076Z" transform="translate(-239.745 -35.986)" fill="#ffeac9"/>
    <path id="Path_28" data-name="Path 28" d="M329.5-167.687c-1.738.42-2.438,1.233-2.326,2.775.084,1.177.14,1.261.925,1.345a26.845,26.845,0,0,1,2.943.5l2.1.42.5-.729c.7-.925,1.345-.9,5.381.252a32.528,32.528,0,0,0,3.419.9,9.89,9.89,0,0,0-.112-1.962l-.224-1.906-1.121-.392C336.952-167.912,332.468-168.36,329.5-167.687Z" transform="translate(-219.915 -38.869)" fill="#ffeac9"/>
    <path id="Path_29" data-name="Path 29" d="M639.966-163.309l-1.261,2.663,1.009,3.812a57.055,57.055,0,0,0,2.27,6.643c1.373,3.111,1.4,3.84.252,4.933a4.444,4.444,0,0,1-4.232.476,8.859,8.859,0,0,1-3.055-3c-.532-.841-.645-1.542-.813-5.185-.2-4.344-1.205-10.4-1.71-10.343-.14,0-.561.5-.9,1.121-.589,1.065-.589,1.149-.224,3.9.224,1.542.5,4.372.589,6.306.168,3.335.14,3.588-.561,5.438-.869,2.3-1.065,2.551-2.663,3.588a4.6,4.6,0,0,1-2.326.785c-2.887,0-4.989-3.9-4.428-8.128.112-.841.42-3.055.673-4.933.645-4.765.112-5.97-1.794-3.98-1.4,1.514-2.438,4.008-3.644,8.829-1.6,6.419-2.579,8.493-4.064,8.493-1.429,0-2.579-3-2.831-7.287-.2-3.784-.364-4.737-.7-4.12-.42.7.224,8.381.869,10.567a5.679,5.679,0,0,0,1.485,2.747c.953.925.953.925.617,2.242-.7,2.747-.757,3.419-.28,3.419.5,0,.9-.9,1.345-3.083a3.242,3.242,0,0,1,.953-2.046c1.261-1.009,2.3-3.924,3.139-8.885.729-4.148,1.289-5.97,2.13-6.923.673-.757.7-.785,1.121-.252a1.481,1.481,0,0,1,.308.981,51.1,51.1,0,0,0-.869,9c.9,6.391,5.269,8.6,9.165,4.653a11.18,11.18,0,0,0,3.055-4.877c.2-.645.42-1.177.532-1.177a5.185,5.185,0,0,1,.7,1.6,7.316,7.316,0,0,0,3.7,4.316c2.41.785,5.1-.589,6.419-3.279,1.486-3.027,1.261-5.073-1.149-11.127l-1.233-3.027.7-.252.7-.28-.841-1.205c-1.906-2.775-1.261-3.532,1.289-1.57a15.519,15.519,0,0,1,5.353,6.615c1.177,3.111,1.289,4.316.617,6.755a46.218,46.218,0,0,1-4.036,9.025,7.447,7.447,0,0,0-.925,1.878,14.58,14.58,0,0,0,2.214-1.85c3.532-3.307,4.877-6.951,4.625-12.5-.308-6.447-2.607-10.258-8.072-13.426a6.53,6.53,0,0,0-1.626-.729A8.776,8.776,0,0,0,639.966-163.309Z" transform="translate(-423.063 -40.304)" fill="#ffeac9"/>
    <path id="Path_30" data-name="Path 30" d="M599.755-161.823a8.5,8.5,0,0,0-.981,5.381c.364,1.289,1.373,2.018,2.186,1.57.336-.168.589-.42.589-.561a3.28,3.28,0,0,1,.168-.673c.112-.308,0-.448-.364-.448-1.317,0-1.542-1.373-.673-4.485.448-1.6.477-1.962.168-1.962C600.624-163,600.147-162.467,599.755-161.823Z" transform="translate(-415.309 -42.463)" fill="#ffeac9"/>
    <path id="Path_31" data-name="Path 31" d="M66.977-149.15a11.977,11.977,0,0,0-1.121,2.382,9.177,9.177,0,0,1-.7,1.766c-.084.112-.561-.477-1.037-1.261-.869-1.4-1.766-1.962-2.663-1.6-.561.2-.533,1.4.028,1.962a1.665,1.665,0,0,0,1.065.448c.785,0,1.345.617,2.046,2.242l.561,1.261.5-1.542c1.289-3.952,1.542-4.485,2.214-4.485a1.514,1.514,0,0,1,1.009.42c.28.336.448.364.729.112.589-.476.476-1.205-.252-1.878C68.463-150.159,67.622-150.1,66.977-149.15Z" transform="translate(-28.392 -51.885)" fill="#ffeac9"/>
    <path id="Path_32" data-name="Path 32" d="M290.066-149.193a12.011,12.011,0,0,0-1.205,2.691c-.617,1.906-.645,1.962-1.149,1.514a1.527,1.527,0,0,1-.533-.841,3.314,3.314,0,0,0-.729-1.205c-1.261-1.514-2.775-.953-2.186.785.2.533.5.757,1.205.869.785.112,1.093.364,1.57,1.289a14.411,14.411,0,0,1,.813,1.822c.2.645.2.645.448.112.112-.308.561-1.682.981-3.027a5.958,5.958,0,0,1,1.177-2.635,1.974,1.974,0,0,1,1.233.308c.757.448.785.448,1.121-.14.252-.5.224-.729-.224-1.345A1.479,1.479,0,0,0,290.066-149.193Z" transform="translate(-188.949 -51.953)" fill="#ffeac9"/>
    <path id="Path_33" data-name="Path 33" d="M211.082-148.327a9.076,9.076,0,0,0-1.261,2.663,12.69,12.69,0,0,1-.757,1.99,16.076,16.076,0,0,1-1.121-1.542c-.9-1.373-1.121-1.542-1.99-1.542s-.953.084-.953.813c0,.953.392,1.345,1.514,1.486.645.056.953.364,1.457,1.345.364.7.729,1.514.841,1.822.2.645.168.729,1.205-2.831a9.222,9.222,0,0,1,1.121-2.663l.533-.673.869.645c.981.729,1.429.617,1.429-.336a2.341,2.341,0,0,0-1.794-1.85A2.066,2.066,0,0,0,211.082-148.327Z" transform="translate(-131.996 -52.539)" fill="#ffeac9"/>
    <path id="Path_34" data-name="Path 34" d="M92.333-130.846a7.165,7.165,0,0,0-1.6,3.588c-.336,1.794.168,3.223,1.261,3.644.925.364.869.364,1.373-.168.645-.645.561-1.457-.14-1.57-1.177-.168-1.289-.841-.561-3.588a10.871,10.871,0,0,0,.5-2.691C93.09-131.715,92.726-131.351,92.333-130.846Z" transform="translate(-49.684 -65.031)" fill="#ffeac9"/>
    <path id="Path_35" data-name="Path 35" d="M668.118-128.346c-1.514,1.514-2.382,4.821-1.71,6.475.589,1.429,2.551,1.486,2.747.028.084-.476-.056-.589-.645-.589-1.289,0-1.4-.925-.42-3.756a15.016,15.016,0,0,0,.729-2.635C668.763-128.878,668.426-128.654,668.118-128.346Z" transform="translate(-463.912 -67.055)" fill="#ffeac9"/>
    <path id="Path_36" data-name="Path 36" d="M768.718-128.281a15.959,15.959,0,0,0-1.093,2.41,5.157,5.157,0,0,1-.841,1.738c-.14.028-.533-.561-.925-1.289-1.065-2.158-2.859-2.551-2.859-.673,0,1.121.477,1.626,1.4,1.542.5-.056.813.224,1.542,1.57l.925,1.654.336-1.233a19.549,19.549,0,0,1,1.065-2.859c.645-1.486.785-1.626,1.429-1.514,1.6.336,1.794.308,2.074-.14.252-.392.168-.617-.364-1.205A1.648,1.648,0,0,0,768.718-128.281Z" transform="translate(-533.596 -66.951)" fill="#ffeac9"/>
    <path id="Path_37" data-name="Path 37" d="M426.312-121.861c.224,5.634.448,8.913.617,8.913.112,0,.476-.42.841-.925.589-.869.617-1.205.617-6.026V-125H426.2Z" transform="translate(-291.196 -69.812)" fill="#ffeac9"/>
    <path id="Path_38" data-name="Path 38" d="M55.382-115.655c-.757,1.037-1.373,2.158-1.233,2.3a18.728,18.728,0,0,0,2.326.392,8.151,8.151,0,0,1,2.523.617c.336.364-.757,1.289-2.943,2.495-1.85,1.009-1.121,1.149,1.261.252,2.607-.981,4.765-3.307,4.569-4.933-.084-.7-.252-.813-1.906-1.233C56.307-116.664,56.139-116.636,55.382-115.655Z" transform="translate(-23.411 -75.99)" fill="#ffeac9"/>
    <path id="Path_39" data-name="Path 39" d="M401.7-105.6a8.171,8.171,0,0,0-.7,1.626,12.97,12.97,0,0,0,3.223,1.738,15.785,15.785,0,0,0,1.6-2.859c.168-.392-.084-.645-1.177-1.205a6.79,6.79,0,0,0-1.794-.7C402.6-107,402.093-106.383,401.7-105.6Z" transform="translate(-273.06 -82.767)" fill="#ffeac9"/>
    <path id="Path_40" data-name="Path 40" d="M766.71-97.652c-.953,1.962-1.037,4.008-.2,4.9.7.757,1.205.757,2.691.084A3.239,3.239,0,0,0,771-94.513l.645-1.345-.9-.813c-1.009-.9-1.71-.981-2.354-.28s-.589.9.168.9a2.366,2.366,0,0,1,1.205.392c.533.392.533.42-.14,1.121-1.093,1.149-2.831.869-2.831-.476a8.874,8.874,0,0,1,.448-1.878C767.944-99.025,767.607-99.5,766.71-97.652Z" transform="translate(-535.709 -88.668)" fill="#ffeac9"/>
    <path id="Path_41" data-name="Path 41" d="M289.961-94.675c-1.009,1.85-1.317,4.877-.589,5.97.813,1.233,2.887.757,2.635-.617-.056-.308-.392-.533-.841-.589a1.067,1.067,0,0,1-.925-.617,18.342,18.342,0,0,1,1.121-5.073C291.727-96.749,290.718-96.076,289.961-94.675Z" transform="translate(-192.432 -90.552)" fill="#ffeac9"/>
    <path id="Path_42" data-name="Path 42" d="M383.542-89.846A6.147,6.147,0,0,0,382-85.193c0,1.514.112,2.018.5,2.382a1.355,1.355,0,0,0,2.13-.14c.673-.953.561-1.345-.392-1.345-1.233,0-1.345-.925-.42-3.812a14.1,14.1,0,0,0,.617-2.523C384.354-90.715,383.962-90.351,383.542-89.846Z" transform="translate(-259.385 -94.539)" fill="#ffeac9"/>
    <path id="Path_43" data-name="Path 43" d="M201.841-82.246A14.574,14.574,0,0,0,201-80.424a3.537,3.537,0,0,0,1.205.673c2.382,1.009,2.27,1.037,3.251-.785a4.243,4.243,0,0,0,.673-1.794c-.14-.084-.953-.476-1.85-.869l-1.6-.7Z" transform="translate(-129.117 -99.393)" fill="#ffeac9"/>
    <path id="Path_44" data-name="Path 44" d="M225.261-81.3c-.224.392-.617,1.009-.841,1.4a2.869,2.869,0,0,0-.42.981,9.211,9.211,0,0,0,3.363,1.682,8.894,8.894,0,0,0,1.682-3.027A12.97,12.97,0,0,0,225.822-82,2.568,2.568,0,0,0,225.261-81.3Z" transform="translate(-145.67 -100.76)" fill="#ffeac9"/>
    <path id="Path_45" data-name="Path 45" d="M558.507-75.111c-.841.813-1.373,1.99-.925,1.99a3.066,3.066,0,0,0,.925-.561c.813-.645,2.438-.757,2.438-.2a7.2,7.2,0,0,1-.841,1.906c-2.971,5.381,2.663,6.867,7.988,2.1,1.822-1.626,1.149-1.682-1.878-.168-2.466,1.233-4.316,1.486-5.1.673-.617-.589-.561-.9.392-3A10.63,10.63,0,0,0,562.431-75c.056-.757.028-.785-1.514-.869C559.488-75.952,559.263-75.867,558.507-75.111Z" transform="translate(-385.636 -105.155)" fill="#ffeac9"/>
    <path id="Path_46" data-name="Path 46" d="M313.6-54.533c-3.2,1.682-4.709,2.663-4.961,3.139a1.722,1.722,0,0,0-.252.785,99.581,99.581,0,0,0,10.034-5.1c.28-.42.28-1.289.028-1.289C318.309-56.972,316.15-55.879,313.6-54.533Z" transform="translate(-206.401 -118.753)" fill="#ffeac9"/>
    <path id="Path_47" data-name="Path 47" d="M112.241-37.449c-4.625,2.831-5.269,3.335-5.1,4.008.112.645,9.474-5.017,9.782-5.942.168-.42.14-.617-.14-.617A40.868,40.868,0,0,0,112.241-37.449Z" transform="translate(-61.548 -130.988)" fill="#ffeac9"/>
    <path id="Path_48" data-name="Path 48" d="M678.377-38.088c-.112.476-.364.589-1.233.589a2.733,2.733,0,0,0-1.345.252,6.425,6.425,0,0,1-2.13.364c-1.766.112-1.99.2-4.2,1.794a34.259,34.259,0,0,1-3.251,2.186c-.869.448-1.373.925-1.149,1.149a25.748,25.748,0,0,0,3.307-1.682c2.719-1.542,3.419-1.822,4.569-1.822a6.279,6.279,0,0,0,2.13-.392,2.332,2.332,0,0,1,1.373-.252,1.724,1.724,0,0,0,2.3-1.205c.224-.645.252-1.093.056-1.289C678.629-38.564,678.489-38.452,678.377-38.088Z" transform="translate(-463.071 -132.087)" fill="#ffeac9"/>
    <path id="Path_49" data-name="Path 49" d="M745.269-33.58c-4.877,2.158-6.447,3.111-6.222,3.756.112.28,10.034-3.532,10.707-4.12a4.751,4.751,0,0,0,.841-1.121c.364-.645.42-.869.14-.841C750.539-35.878,748.072-34.841,745.269-33.58Z" transform="translate(-516.342 -133.933)" fill="#ffeac9"/>
    <path id="Path_50" data-name="Path 50" d="M800.9-33.322a5.794,5.794,0,0,0-.9,1.514c0,.336,3.335,1.794,3.644,1.6a13.049,13.049,0,0,0,1.682-2.8,3.594,3.594,0,0,0-1.177-.673C801.822-34.667,801.85-34.667,800.9-33.322Z" transform="translate(-560.225 -135.032)" fill="#ffeac9"/>
  </g>
</svg>
