<svg id="bookmark" xmlns="http://www.w3.org/2000/svg" width="7.927" height="11.61" viewBox="0 0 7.927 11.61">
  <g id="Group_9" data-name="Group 9" transform="translate(0 0)">
    <path id="Path_51" data-name="Path 51" d="M86.533,0a1.1,1.1,0,0,0-1.2.967v10.4a.244.244,0,0,0,.173.219.361.361,0,0,0,.319-.033l3.408-2.29,3.408,2.29a.347.347,0,0,0,.192.056.359.359,0,0,0,.127-.023.548.548,0,0,0,.3-.219c0-5.581.01-8.893-.049-10.4A1.074,1.074,0,0,0,92.9.276,1.928,1.928,0,0,0,91.967,0Zm6,.967v9.884L89.426,8.763a.358.358,0,0,0-.384,0l-3.108,2.088V.967a.552.552,0,0,1,.6-.484h5.434C92.485.484,92.534.791,92.534.967Z" transform="translate(-85.333 0)" fill="#ebbd77"/>
  </g>
</svg>
