<svg id="people" xmlns="http://www.w3.org/2000/svg" width="58.632" height="58.632" viewBox="0 0 58.632 58.632">
  <path id="Path_83" data-name="Path 83" d="M209.742,252.871a6.871,6.871,0,1,0-6.871,6.871A6.879,6.879,0,0,0,209.742,252.871Zm-6.871,4.581a4.581,4.581,0,1,1,4.581-4.581A4.586,4.586,0,0,1,202.871,257.452Z" transform="translate(-173.555 -217.829)" fill="#ebbd77"/>
  <path id="Path_84" data-name="Path 84" d="M45.742,252.871a6.871,6.871,0,1,0-6.871,6.871A6.879,6.879,0,0,0,45.742,252.871Zm-6.871,4.581a4.581,4.581,0,1,1,4.581-4.581A4.586,4.586,0,0,1,38.871,257.452Z" transform="translate(-28.335 -217.829)" fill="#ebbd77"/>
  <path id="Path_85" data-name="Path 85" d="M373.742,252.871a6.871,6.871,0,1,0-6.871,6.871A6.879,6.879,0,0,0,373.742,252.871Zm-6.871,4.581a4.581,4.581,0,1,1,4.581-4.581A4.586,4.586,0,0,1,366.871,257.452Z" transform="translate(-318.774 -217.829)" fill="#ebbd77"/>
  <path id="Path_86" data-name="Path 86" d="M48.1,366a10.664,10.664,0,0,0-9.39,5.665,10.615,10.615,0,0,0-18.781,0A10.659,10.659,0,0,0,10.535,366,10.5,10.5,0,0,0,0,376.306v5.268a1.145,1.145,0,0,0,1.145,1.145H57.487a1.145,1.145,0,0,0,1.145-1.145v-5.268A10.5,10.5,0,0,0,48.1,366Zm-18.781,2.29a8.242,8.242,0,0,1,8.245,8.016v4.123H21.071v-4.123A8.242,8.242,0,0,1,29.316,368.29ZM2.29,376.306a8.248,8.248,0,0,1,16.49,0v4.123H2.29Zm54.051,4.123H39.851v-4.123a8.248,8.248,0,0,1,16.49,0Z" transform="translate(0 -324.087)" fill="#ebbd77"/>
  <path id="Path_87" data-name="Path 87" d="M229.435,60a3.435,3.435,0,1,0,3.435,3.435A3.439,3.439,0,0,0,229.435,60Zm0,4.581a1.145,1.145,0,1,1,1.145-1.145A1.146,1.146,0,0,1,229.435,64.581Z" transform="translate(-200.119 -53.129)" fill="#ebbd77"/>
  <path id="Path_88" data-name="Path 88" d="M146,63.435A3.435,3.435,0,1,0,149.435,60,3.439,3.439,0,0,0,146,63.435Zm4.581,0a1.145,1.145,0,1,1-1.145-1.145A1.146,1.146,0,0,1,150.581,63.435Z" transform="translate(-129.281 -53.129)" fill="#ebbd77"/>
  <path id="Path_89" data-name="Path 89" d="M312.871,63.435a3.435,3.435,0,1,0-3.435,3.435A3.439,3.439,0,0,0,312.871,63.435Zm-4.581,0a1.145,1.145,0,1,1,1.145,1.145A1.146,1.146,0,0,1,308.29,63.435Z" transform="translate(-270.958 -53.129)" fill="#ebbd77"/>
  <circle id="Ellipse_3" data-name="Ellipse 3" cx="1" cy="1" r="1" transform="translate(28.316 0.316)" fill="#ebbd77"/>
  <path id="Path_90" data-name="Path 90" d="M71.288,19.011l-1.24,2.852-1.24-2.852a1.145,1.145,0,0,0-1.05-.689H56.306a8.016,8.016,0,1,1,0-16.032H64.9A1.145,1.145,0,0,0,64.9,0H56.306a10.306,10.306,0,0,0,0,20.613h10.7L69,25.192a1.145,1.145,0,0,0,2.1,0l1.991-4.579h10.7A10.306,10.306,0,0,0,83.79,0H75.2a1.145,1.145,0,0,0,0,2.29H83.79a8.016,8.016,0,1,1,0,16.032H72.339a1.145,1.145,0,0,0-1.05.689Z" transform="translate(-40.732)" fill="#ebbd77"/>
</svg>
