<svg id="reader" xmlns="http://www.w3.org/2000/svg" width="20" height="12.539" viewBox="0 0 20 12.539">
  <path id="Path_60" data-name="Path 60" d="M225.645,130.858v-6.036c0-.112-.144-.2-.323-.2s-.323.09-.323.2v6.036c0,.112.144.2.323.2S225.645,130.97,225.645,130.858Z" transform="translate(-215.323 -121.072)" fill="#ffeac9"/>
  <path id="Path_61" data-name="Path 61" d="M19.677,43.205a10.78,10.78,0,0,1-2.432-.452,15.123,15.123,0,0,0-3.77-.628,4.628,4.628,0,0,0-3.016.931,3.171,3.171,0,0,0-.46.459,3.171,3.171,0,0,0-.46-.459,4.628,4.628,0,0,0-3.016-.931,15.122,15.122,0,0,0-3.77.628,10.782,10.782,0,0,1-2.432.452c-.178,0-.323.108-.323.241v9.688c0,.133.144.241.323.241A11.282,11.282,0,0,0,2.965,52.9a14.478,14.478,0,0,1,3.559-.6,3.911,3.911,0,0,1,2.539.775.4.4,0,0,0,.456.015.2.2,0,0,0,.021-.34,4.629,4.629,0,0,0-3.016-.931,15.122,15.122,0,0,0-3.77.628,13.748,13.748,0,0,1-2.109.437v-9.2a13.659,13.659,0,0,0,2.32-.466,14.478,14.478,0,0,1,3.559-.6c2.49,0,3.141,1.474,3.167,1.536a.365.365,0,0,0,.617,0c.006-.015.662-1.536,3.167-1.536a14.478,14.478,0,0,1,3.559.6,13.656,13.656,0,0,0,2.32.466v9.2a13.752,13.752,0,0,1-2.109-.437,15.122,15.122,0,0,0-3.77-.628,4.628,4.628,0,0,0-3.016.931.2.2,0,0,0,.021.34.4.4,0,0,0,.456-.015,3.911,3.911,0,0,1,2.539-.775,14.478,14.478,0,0,1,3.559.6,11.283,11.283,0,0,0,2.643.478c.178,0,.323-.108.323-.241V43.446C20,43.313,19.856,43.205,19.677,43.205Z" transform="translate(0 -42.126)" fill="#ffeac9"/>
  <path id="Path_62" data-name="Path 62" d="M19.677,375.666a8.37,8.37,0,0,1-2.432-.606,11.681,11.681,0,0,0-3.77-.842,3.952,3.952,0,0,0-2.916,1.144H9.441a3.952,3.952,0,0,0-2.916-1.144,11.681,11.681,0,0,0-3.77.842,8.37,8.37,0,0,1-2.432.606.323.323,0,0,0,0,.645,8.748,8.748,0,0,0,2.643-.641,11.19,11.19,0,0,1,3.559-.806A3.285,3.285,0,0,1,9.064,375.9a.323.323,0,0,0,.238.105h1.4a.323.323,0,0,0,.238-.105,3.285,3.285,0,0,1,2.539-1.039,11.19,11.19,0,0,1,3.559.806,8.748,8.748,0,0,0,2.643.641.323.323,0,0,0,0-.645Z" transform="translate(0 -363.772)" fill="#ffeac9"/>
</svg>
