<svg id="list" xmlns="http://www.w3.org/2000/svg" width="56.854" height="45.009" viewBox="0 0 56.854 45.009">
  <g id="Group_29" data-name="Group 29" transform="translate(16.582 4.738)">
    <g id="Group_28" data-name="Group 28">
      <path id="Path_63" data-name="Path 63" d="M188.42,96h-37.9a1.184,1.184,0,1,0,0,2.369h37.9a1.184,1.184,0,0,0,0-2.369Z" transform="translate(-149.333 -96)" fill="#ebbd77"/>
    </g>
  </g>
  <g id="Group_31" data-name="Group 31" transform="translate(16.582 21.32)">
    <g id="Group_30" data-name="Group 30">
      <path id="Path_64" data-name="Path 64" d="M188.42,245.333h-37.9a1.184,1.184,0,1,0,0,2.369h37.9a1.184,1.184,0,0,0,0-2.369Z" transform="translate(-149.333 -245.333)" fill="#ebbd77"/>
    </g>
  </g>
  <g id="Group_33" data-name="Group 33" transform="translate(16.582 37.903)">
    <g id="Group_32" data-name="Group 32">
      <path id="Path_65" data-name="Path 65" d="M188.42,394.667h-37.9a1.184,1.184,0,1,0,0,2.369h37.9a1.184,1.184,0,0,0,0-2.369Z" transform="translate(-149.333 -394.667)" fill="#ebbd77"/>
    </g>
  </g>
  <g id="Group_35" data-name="Group 35" transform="translate(0 33.165)">
    <g id="Group_34" data-name="Group 34">
      <path id="Path_66" data-name="Path 66" d="M5.922,352a5.922,5.922,0,1,0,5.922,5.922A5.929,5.929,0,0,0,5.922,352Zm0,9.476a3.553,3.553,0,1,1,3.553-3.553A3.558,3.558,0,0,1,5.922,361.476Z" transform="translate(0 -352)" fill="#ebbd77"/>
    </g>
  </g>
  <g id="Group_37" data-name="Group 37" transform="translate(0 16.582)">
    <g id="Group_36" data-name="Group 36">
      <path id="Path_67" data-name="Path 67" d="M5.922,202.667a5.922,5.922,0,1,0,5.922,5.922A5.929,5.929,0,0,0,5.922,202.667Zm0,9.476a3.553,3.553,0,1,1,3.553-3.553A3.558,3.558,0,0,1,5.922,212.143Z" transform="translate(0 -202.667)" fill="#ebbd77"/>
    </g>
  </g>
  <g id="Group_39" data-name="Group 39" transform="translate(0)">
    <g id="Group_38" data-name="Group 38">
      <path id="Path_68" data-name="Path 68" d="M5.922,53.333a5.922,5.922,0,1,0,5.922,5.922A5.929,5.929,0,0,0,5.922,53.333Zm0,9.476a3.553,3.553,0,1,1,3.553-3.553A3.558,3.558,0,0,1,5.922,62.809Z" transform="translate(0 -53.333)" fill="#ebbd77"/>
    </g>
  </g>
</svg>
