<svg id="play-button" xmlns="http://www.w3.org/2000/svg" width="37.563" height="49.548" viewBox="0 0 37.563 49.548">
  <g id="Group_10" data-name="Group 10" transform="translate(0 0)">
    <path id="Path_52" data-name="Path 52" d="M96.227,19.432,70.579,1.4c-2.146-1.489-4.3-1.818-6.122-.833-1.654.833-2.651,2.815-2.651,5.3V43.755c0,2.487,1,4.468,2.651,5.3a4.593,4.593,0,0,0,2.146.492,9.668,9.668,0,0,0,3.976-1.161L96.227,30.35a6.605,6.605,0,0,0,3.143-5.465A6.568,6.568,0,0,0,96.227,19.432Zm-1.994,8.1L68.585,45.573a2.489,2.489,0,0,1-2.651.656,2.725,2.725,0,0,1-1-2.487V5.851c0-1.325.328-2.146,1-2.487a.987.987,0,0,1,.656-.164,3.487,3.487,0,0,1,2.146.833L94.384,22.07a3.353,3.353,0,0,1,1.654,2.651A3.592,3.592,0,0,1,94.233,27.536Z" transform="translate(-61.807 0)" fill="#ebbd77"/>
  </g>
</svg>
