<svg xmlns="http://www.w3.org/2000/svg" width="50.5" height="31.661" viewBox="0 0 50.5 31.661">
  <g id="Group_106" data-name="Group 106" transform="translate(-52.5 -145)">
    <path id="Path_60" data-name="Path 60" d="M226.629,140.371V125.13c0-.282-.365-.51-.815-.51s-.815.228-.815.51v15.241c0,.282.365.51.815.51S226.629,140.653,226.629,140.371Z" transform="translate(-148.065 29.339)" fill="#56462E"/>
    <path id="Path_61" data-name="Path 61" d="M49.685,44.851a27.22,27.22,0,0,1-6.14-1.141,38.184,38.184,0,0,0-9.52-1.585,11.686,11.686,0,0,0-7.615,2.351,8.008,8.008,0,0,0-1.161,1.16,8.008,8.008,0,0,0-1.161-1.16,11.687,11.687,0,0,0-7.615-2.351,38.184,38.184,0,0,0-9.52,1.585,27.223,27.223,0,0,1-6.14,1.141c-.45,0-.815.272-.815.607V69.922c0,.335.365.607.815.607a28.488,28.488,0,0,0,6.673-1.207A36.557,36.557,0,0,1,16.475,67.8a9.875,9.875,0,0,1,6.412,1.956,1.02,1.02,0,0,0,1.151.039.507.507,0,0,0,.052-.858,11.687,11.687,0,0,0-7.615-2.351,38.183,38.183,0,0,0-9.52,1.585,34.714,34.714,0,0,1-5.325,1.1V46.036a34.489,34.489,0,0,0,5.858-1.177,36.557,36.557,0,0,1,8.987-1.518c6.286,0,7.931,3.722,8,3.878a.921.921,0,0,0,1.557,0c.016-.039,1.671-3.878,8-3.878a36.557,36.557,0,0,1,8.987,1.518,34.483,34.483,0,0,0,5.858,1.177V69.278a34.722,34.722,0,0,1-5.325-1.1,38.184,38.184,0,0,0-9.52-1.585,11.686,11.686,0,0,0-7.615,2.351.507.507,0,0,0,.052.858,1.02,1.02,0,0,0,1.151-.039A9.875,9.875,0,0,1,34.025,67.8a36.557,36.557,0,0,1,8.987,1.518,28.49,28.49,0,0,0,6.673,1.207c.45,0,.815-.272.815-.607V45.459C50.5,45.123,50.135,44.851,49.685,44.851Z" transform="translate(52.5 102.874)" fill="#56462E"/>
    <path id="Path_62" data-name="Path 62" d="M49.686,377.873a21.136,21.136,0,0,1-6.14-1.53c-2.877-1-6.138-2.126-9.52-2.126a9.979,9.979,0,0,0-7.363,2.888H23.837a9.98,9.98,0,0,0-7.363-2.888c-3.382,0-6.643,1.129-9.52,2.126a21.136,21.136,0,0,1-6.14,1.53.814.814,0,1,0,0,1.629,22.089,22.089,0,0,0,6.673-1.619c2.756-.954,5.879-2.036,8.987-2.036a8.3,8.3,0,0,1,6.412,2.623.814.814,0,0,0,.6.265h3.525a.815.815,0,0,0,.6-.265,8.3,8.3,0,0,1,6.412-2.623c3.108,0,6.232,1.082,8.987,2.036a22.091,22.091,0,0,0,6.673,1.619.814.814,0,0,0,0-1.629Z" transform="translate(52.5 -202.841)" fill="#56462E"/>
  </g>
</svg>
