<svg xmlns="http://www.w3.org/2000/svg" width="37.471" height="37.471" viewBox="0 0 37.471 37.471">
  <path id="Path_59" data-name="Path 59" d="M17.733-907.566c-.8.791-1.992,1.976-2.655,2.631l-1.2,1.2H6.262v3.8l0,3.808-2.627,2.659C2.185-892.005,1-890.788,1-890.764s1.185,1.241,2.631,2.7L6.258-885.4l0,3.8v3.808h7.612l1.225,1.217c3.221,3.193,4.093,4.045,4.133,4.045s1.245-1.185,2.707-2.631l2.659-2.627,3.808,0h3.8V-885.4l1.237-1.245c.679-.683,1.86-1.88,2.631-2.655s1.394-1.43,1.394-1.462-.639-.695-1.414-1.482-1.964-1.98-2.631-2.655l-1.217-1.225v-7.612H24.6l-1.265-1.253c-.695-.691-1.892-1.876-2.655-2.631S19.268-909,19.24-909,18.533-908.353,17.733-907.566Z" transform="translate(-0.5 909.5)" fill="none" stroke="#ebbd77" stroke-width="1"/>
</svg>
