<svg id="translate" xmlns="http://www.w3.org/2000/svg" width="72" height="72" viewBox="0 0 72 72">
  <g id="Group_47" data-name="Group 47">
    <g id="Group_46" data-name="Group 46">
      <path id="Path_91" data-name="Path 91" d="M65.09,13.393H38.009L33.955,1.012A1.47,1.47,0,0,0,32.558,0H6.91A6.918,6.918,0,0,0,0,6.91V51.7a6.918,6.918,0,0,0,6.91,6.91H33.926l4.122,12.388A1.469,1.469,0,0,0,39.442,72H65.09A6.918,6.918,0,0,0,72,65.09V20.3A6.918,6.918,0,0,0,65.09,13.393ZM6.91,55.667A3.976,3.976,0,0,1,2.939,51.7V6.91A3.976,3.976,0,0,1,6.91,2.939H31.493L48.759,55.668H6.91ZM49.283,40.294c.629.962,1.386,2.03,2.279,3.159-.836.943-1.761,1.9-2.779,2.844L44.738,33.943H45.9A37.663,37.663,0,0,0,49.283,40.294Zm-.178-6.351h8.742a38.383,38.383,0,0,1-4.37,7.186c-.639-.834-1.2-1.625-1.674-2.351A36.794,36.794,0,0,1,49.105,33.943ZM37.023,58.606H47.616l-7.606,8.979ZM65.09,69.061H42.612l9.271-10.945a1.467,1.467,0,0,0,.27-1.527l-2.37-7.236a44.652,44.652,0,0,0,3.7-3.634A44.815,44.815,0,0,0,63.3,53.857a1.469,1.469,0,1,0,1.534-2.506,41.89,41.89,0,0,1-9.433-7.9,39.69,39.69,0,0,0,5.653-9.512h4.335a1.469,1.469,0,0,0,0-2.939H54.854v-2.5a1.469,1.469,0,0,0-2.939,0V31h-8.14l-4.8-14.672H65.09A3.976,3.976,0,0,1,69.061,20.3V65.09h0A3.976,3.976,0,0,1,65.09,69.061Z" fill="#ebbd77"/>
    </g>
  </g>
  <g id="Group_49" data-name="Group 49" transform="translate(9.86 18.631)">
    <g id="Group_48" data-name="Group 48">
      <path id="Path_92" data-name="Path 92" d="M90.294,141.845H81.968a1.469,1.469,0,0,0,0,2.939h6.719a7.886,7.886,0,1,1-2.638-7.475,1.469,1.469,0,1,0,1.906-2.237,10.825,10.825,0,1,0,3.808,8.243A1.469,1.469,0,0,0,90.294,141.845Z" transform="translate(-70.114 -132.49)" fill="#ebbd77"/>
    </g>
  </g>
  <g id="Group_51" data-name="Group 51" transform="translate(26.226 49.42)">
    <g id="Group_50" data-name="Group 50">
      <path id="Path_93" data-name="Path 93" d="M188.622,351.434h-.658a1.469,1.469,0,0,0,0,2.939h.658a1.469,1.469,0,1,0,0-2.939Z" transform="translate(-186.495 -351.434)" fill="#ebbd77"/>
    </g>
  </g>
  <g id="Group_53" data-name="Group 53" transform="translate(7.2 49.42)">
    <g id="Group_52" data-name="Group 52">
      <path id="Path_94" data-name="Path 94" d="M66.942,351.434H52.669a1.469,1.469,0,0,0,0,2.939H66.942a1.469,1.469,0,0,0,0-2.939Z" transform="translate(-51.2 -351.434)" fill="#ebbd77"/>
    </g>
  </g>
</svg>
