<svg xmlns="http://www.w3.org/2000/svg" width="49.476" height="66.752" viewBox="0 0 49.476 66.752">
  <g id="_500_F_155763739_SKK3qcufirug0WXbXHwxMcBWUAc0Ntmf" data-name="500_F_155763739_SKK3qcufirug0WXbXHwxMcBWUAc0Ntmf" transform="translate(-121.138 419)">
    <path id="Path_73" data-name="Path 73" d="M254.287-418.7c-.434.533-.1.948,1.422,1.738,1.264.652,1.58.75,1.837.533a.993.993,0,0,0-.059-1.442A6.25,6.25,0,0,0,254.959-419,1.007,1.007,0,0,0,254.287-418.7Z" transform="translate(-106.712 0)" fill="#ebbd77"/>
    <path id="Path_74" data-name="Path 74" d="M226.091-417.515c-1.2.612-1.935,1.442-1.777,2.054.178.731.908.672,2.014-.178a5.414,5.414,0,0,1,1.066-.691c.1,0,.277-.178.395-.415a.554.554,0,0,0-.118-.79C227.256-418.009,227.1-418.009,226.091-417.515Z" transform="translate(-82.782 -0.893)" fill="#ebbd77"/>
    <path id="Path_75" data-name="Path 75" d="M161.063-414.433a7.028,7.028,0,0,0-5.313,4.9,15.874,15.874,0,0,0-.494,5.628,3.425,3.425,0,0,1-.375,2.666c-.3.671-.79,1.916-1.086,2.765l-.553,1.54-.632-2.034a26.646,26.646,0,0,0-2.567-6.1c-.573-.928-.632-1.106-.395-1.363a3.966,3.966,0,0,0,.513-4.049,3.619,3.619,0,0,0-3.594-2.271,3.856,3.856,0,0,0-3.14,6.1,3.631,3.631,0,0,0,3.5,1.56l1.284-.079L149.273-403a34.945,34.945,0,0,1,3.219,11.573c.494,4.246.474,4.562-.257,3.338a16.3,16.3,0,0,0-1.481-1.817,7.43,7.43,0,0,1-1.481-2.212c-1.027-2.8-3.239-5.589-5.214-6.557a4.951,4.951,0,0,0-2.8-.553,11.131,11.131,0,0,0-6.655,2.33c-1.027.691-1.244.928-1.244,1.382a11.176,11.176,0,0,0,1.876,4.286c3.041,4.582,7.307,5.154,12.916,1.758.415-.257.513-.2,1.659,1.027,1.7,1.8,3.1,4.325,3.1,5.53,0,.928-.2,1.165-.928,1.165a16.67,16.67,0,0,0-3.812,1.8.2.2,0,0,1-.217.178,16.163,16.163,0,0,0-2.33,1.2l-2.093,1.185-2.093-.336a6.346,6.346,0,0,0-3.476,0,14.123,14.123,0,0,0-6.675,3.871c-2.824,2.607-4.147,3.752-4.365,3.752-.1,0-.3-.178-.434-.395-.375-.612-.908-.494-3.239.731-2.074,1.086-2.153,1.165-2.093,1.738.079.869.652.849,2.528-.1a4.416,4.416,0,0,1,1.777-.652c.079.079,2.014,3.871,4.325,8.393l4.187,8.235-1.955.987a8.557,8.557,0,0,0-2.093,1.3.838.838,0,0,0,.711,1.086c.593,0,5.076-2.409,5.194-2.8a6.083,6.083,0,0,0-.79-2.113,16.041,16.041,0,0,1-.889-1.975,35.842,35.842,0,0,1,5.826-2.37,56.128,56.128,0,0,1,8.393-.711c5.925-.2,8.393-.553,10.072-1.4,1.027-.513,1.837-1.323,5.688-5.747,1.54-1.738,3.338-3.654,3.989-4.226,1.442-1.244,1.975-2.054,1.975-2.982,0-1.4-1.244-2.311-3.219-2.409l-1.244-.059-3.239-2.508c-3.575-2.745-5.075-3.594-6.774-3.792-1.244-.138-1.264-.2-.829-1.442a8,8,0,0,1,2.745-3.515c2.014-1.5,2.034-1.521,3.278-.751a6.673,6.673,0,0,0,4.661,1.126c1.9-.395,3.555-1.9,4.74-4.305a2.936,2.936,0,0,0,.395-1.422c-.158-.494-2.271-1.975-3.456-2.409-2.548-.968-4.167-.632-6.043,1.244a11.345,11.345,0,0,0-1.837,2.488,4.6,4.6,0,0,1-1.876,2.113,12.9,12.9,0,0,0-1.9,1.54,3.271,3.271,0,0,1-.849.711c-.079,0-.158-.494-.158-1.086s-.1-1.975-.217-3.061a9.727,9.727,0,0,1,.2-4.049,29.109,29.109,0,0,1,2.054-6.221l.435-.889,2.666-.118c3.061-.138,4.325-.514,5.885-1.738,1.9-1.5,2.962-4.661,2.745-8.216-.118-1.995-.217-2.37-.691-2.567A23.059,23.059,0,0,0,161.063-414.433Zm5.411,1.56a10.334,10.334,0,0,1,.138,2.251,8.231,8.231,0,0,1-.454,3.219c-.968,2.548-2.864,3.733-6.221,3.891l-1.955.1.375-.652a19.568,19.568,0,0,1,1.916-2.291,9.544,9.544,0,0,0,1.521-1.935,1.228,1.228,0,0,0-.81-.908c-.336,0-2.172,1.817-3.16,3.14l-.968,1.264v-1.382c0-3.515,1.758-6.043,4.681-6.774A17.418,17.418,0,0,1,166.475-412.873Zm-18.683,2.034a2.8,2.8,0,0,1,1.165,1.935,2.838,2.838,0,0,1-1.2,1.975,2.225,2.225,0,0,1-2.528-.217A2.256,2.256,0,0,1,147.792-410.839Zm-5.214,13.39a6.811,6.811,0,0,1,3.594,2.883,8.381,8.381,0,0,1,.81,1.363c0,.1-.652-.118-1.422-.494-2.725-1.244-5.273-1.619-5.767-.849-.375.632.1,1.027,1.382,1.185a13.124,13.124,0,0,1,2.35.573c1.442.513,3.673,1.758,3.535,1.995a12.49,12.49,0,0,1-3.575,1.639,5.286,5.286,0,0,1-5.846-1.679c-.987-1.066-2.508-3.634-2.508-4.246,0-.494,2.9-2.074,4.542-2.469A5.025,5.025,0,0,1,142.578-397.449Zm24.311,4.523c.513.276,1.165.652,1.461.849l.533.375-.494.869c-1.066,1.876-2.33,2.8-3.831,2.8-.849,0-2.962-.711-2.962-1.007a8.28,8.28,0,0,1,1.837-.731c1.718-.573,1.817-.632,1.817-1.165,0-.928-.434-1.007-2.271-.415a9.533,9.533,0,0,1-1.718.434c-.2-.2,1.007-1.521,1.8-1.995A3.941,3.941,0,0,1,166.889-392.926Zm-9.48,13.35a6.425,6.425,0,0,1,1.422.77,28.994,28.994,0,0,0,2.37,1.9c1.284.968,2.35,1.817,2.37,1.876,0,.079-.3.217-.671.355a28.021,28.021,0,0,0-4.878,3.12c-.948.691-1.758,1.264-1.8,1.264a1.947,1.947,0,0,1-.02-.869,3.047,3.047,0,0,0-.3-1.738c-.671-1.521-1.284-1.817-5.727-2.883-2.192-.533-4.029-.987-4.068-1.047-.059-.059.513-.434,1.264-.849.889-.474,1.343-.83,1.264-.968s-.079-.178,0-.1a5.88,5.88,0,0,0,1.758-.632,6.461,6.461,0,0,1,4.088-.909A6.257,6.257,0,0,1,157.41-379.576Zm-15.859,3.555c2.37.375,11.632,2.607,12.106,2.9a2.025,2.025,0,0,1-.217,3.5c-.731.355-.849.355-2.37.039a42.091,42.091,0,0,0-6.359-.79.836.836,0,0,0,.158,1.54c.237.059,1.284.2,2.311.316s2.785.415,3.91.632a10.144,10.144,0,0,0,2.864.276c1.3-.2,2.982-1.086,5.372-2.864,3.081-2.291,5.016-3.219,6.912-3.338,1.244-.079,1.56-.039,1.876.257a1.181,1.181,0,0,1,.395.573,10.308,10.308,0,0,1-1.58,1.7c-.869.81-3.022,3.12-4.8,5.115-1.758,2.014-3.515,3.891-3.891,4.187-1.3,1.027-3.041,1.284-12.639,1.758-4.878.237-6.221.513-9.657,1.9-1.461.573-2.686,1.047-2.706,1.007,0-.02-1.3-2.528-2.844-5.549l-2.824-5.51.77-.612c.415-.336,1.7-1.5,2.844-2.567a19.724,19.724,0,0,1,4.444-3.535,13.743,13.743,0,0,1,4.147-1.224C139.991-376.278,140.8-376.14,141.551-376.021Z" transform="translate(0 -3.481)" fill="#ebbd77"/>
    <path id="Path_76" data-name="Path 76" d="M271.936-232.675c-.731.336-.849.454-.79.908.1.829.573,1.007,1.56.573a4.9,4.9,0,0,1,3.772.039c.889.415.948.415,1.363.079.612-.494.336-1.086-.711-1.58A8.2,8.2,0,0,0,271.936-232.675Z" transform="translate(-120.372 -149.196)" fill="#ebbd77"/>
    <path id="Path_77" data-name="Path 77" d="M276.582-396.695c-.257.158-.316.494-.3,1.837a7.538,7.538,0,0,0,.2,1.856c.257.415.889.3,1.244-.237.454-.691.3-3.022-.237-3.4C277.076-396.932,277.017-396.932,276.582-396.695Z" transform="translate(-124.504 -17.763)" fill="#ebbd77"/>
    <path id="Path_78" data-name="Path 78" d="M216.276-392.7a5.913,5.913,0,0,0,.02,3.318c.276.553.81.731,1.224.395.395-.336.178-3.357-.257-3.713C216.869-393,216.572-393,216.276-392.7Z" transform="translate(-76.166 -20.925)" fill="#ebbd77"/>
    <path id="Path_79" data-name="Path 79" d="M229.319-364.133c-.553.395-.3,1.145.592,1.639,1.718.987,2.864.948,2.864-.059,0-.336-.158-.533-.533-.691-.316-.118-1.007-.415-1.56-.671C229.832-364.311,229.6-364.35,229.319-364.133Z" transform="translate(-86.582 -43.926)" fill="#ebbd77"/>
    <path id="Path_80" data-name="Path 80" d="M177.314-291.833c-.375.375-.3.711.474,1.856a10.274,10.274,0,0,0,5.984,4.226,14.419,14.419,0,0,0,5.312-.2c.869-.316,1.126-.829.671-1.382-.336-.415-.355-.415-1.619-.079a8.581,8.581,0,0,1-5.391-.375,10.53,10.53,0,0,1-3.831-3.436C178.4-292.089,177.808-292.326,177.314-291.833Z" transform="translate(-44.906 -101.849)" fill="#ebbd77"/>
    <path id="Path_81" data-name="Path 81" d="M285.895-172.072c-.494.533-1.955,2.172-3.239,3.673a32.126,32.126,0,0,1-3.357,3.515c-2.074,1.56-4.147,2.212-8.176,2.528-2.765.217-3.219.434-2.824,1.3.276.573.711.612,3.752.277,3.871-.415,6.181-1.185,8.2-2.706a103.038,103.038,0,0,0,7.485-8.314c.237-.395.2-.474-.217-.829a2.129,2.129,0,0,0-.592-.375A5.461,5.461,0,0,0,285.895-172.072Z" transform="translate(-117.998 -197.417)" fill="#ebbd77"/>
    <path id="Path_82" data-name="Path 82" d="M125.405-160.611a1.493,1.493,0,0,0,1.244,2.488,1.585,1.585,0,0,0,1.323-1.343,2.1,2.1,0,0,0-.671-1.382A1.891,1.891,0,0,0,125.405-160.611Z" transform="translate(-3.109 -207.042)" fill="#ebbd77"/>
  </g>
</svg>
