<?xml version="1.0" standalone="no"?>
<!DOCTYPE svg PUBLIC "-//W3C//DTD SVG 1.1//EN" "http://www.w3.org/Graphics/SVG/1.1/DTD/svg11.dtd">
<svg xmlns="http://www.w3.org/2000/svg">
<metadata>Copyright (C) 2020 by original authors @ fontello.com</metadata>
<defs>
<font id="fontello" horiz-adv-x="1000" >
<font-face font-family="fontello" font-weight="400" font-stretch="normal" units-per-em="1000" ascent="850" descent="-150" />
<missing-glyph horiz-adv-x="1000" />
<glyph glyph-name="right-small" unicode="&#xe800;" d="M328 595q15 15 36 15t37-15l245-245-245-245q-15-15-36-15-22 0-37 15t-15 37 15 37l120 119-395 0q-22 0-37 15t-16 37 16 37 37 16l395 0-120 118q-15 15-15 37t15 37z" horiz-adv-x="646" />

<glyph glyph-name="group-users" unicode="&#xe801;" d="M617 252a117 117 0 1 1-117-117 117 117 0 0 1 117 117z m-117-78a78 78 0 1 0 78 78 78 78 0 0 0-78-78z m-203 78a117 117 0 1 1-117-117 117 117 0 0 1 117 117z m-117-78a78 78 0 1 0 78 78 78 78 0 0 0-78-78z m758 78a117 117 0 1 1-118-117 117 117 0 0 1 118 117z m-118-78a78 78 0 1 0 79 78 78 78 0 0 0-79-78z m0-39a182 182 0 0 1-160-96 181 181 0 0 1-320 0 182 182 0 0 1-160 96 179 179 0 0 1-180-176v-90a20 20 0 0 1 20-19h961a20 20 0 0 1 19 19v90a179 179 0 0 1-180 176z m-320-39a141 141 0 0 0 141-137v-70h-282v70a141 141 0 0 0 141 137z m-461-137a141 141 0 0 0 281 0v-70h-281z m922-70h-281v70a141 141 0 0 0 281 0z m-461 844a59 59 0 1 1 59-59 59 59 0 0 1-59 59z m0-78a20 20 0 1 0 20 19 20 20 0 0 0-20-19z m-215 19a59 59 0 1 1 59 59 59 59 0 0 1-59-59z m78 0a20 20 0 1 0-19 20 20 20 0 0 0 19-20z m352 0a59 59 0 1 1-59-58 59 59 0 0 1 59 58z m-78 0a20 20 0 1 0 19-19 20 20 0 0 0-19 19z m-116-148l-21-49-21 49a20 20 0 0 1-18 12h-195a137 137 0 1 0 0 273h146a20 20 0 0 1 0 39h-146a176 176 0 0 1 0-352h182l34-78a20 20 0 0 1 36 0l34 78h182a176 176 0 0 1 0 352h-146a20 20 0 0 1 0-39h146a137 137 0 1 0 0-273h-195a20 20 0 0 1-18-12z" horiz-adv-x="1000" />

<glyph glyph-name="menu" unicode="&#xe802;" d="M650 400q22 0 36-15t14-35-15-35-35-15l-600 0q-20 0-35 15t-15 35 14 35 36 15l600 0z m-600 100q-20 0-35 15t-15 35 14 35 36 15l600 0q22 0 36-15t14-35-15-35-35-15l-600 0z m600-300q22 0 36-15t14-35-15-35-35-15l-600 0q-20 0-35 15t-15 35 14 35 36 15l600 0z" horiz-adv-x="700" />

<glyph glyph-name="ok" unicode="&#xe803;" d="M875 588l-535-600-340 338 123 124 196-195 420 457z" horiz-adv-x="875" />

<glyph glyph-name="search" unicode="&#xe805;" d="M772 78q30-34 6-62l-46-46q-36-32-68 0l-190 190q-74-42-156-42-128 0-223 95t-95 223 90 219 218 91 224-95 96-223q0-88-46-162z m-678 358q0-88 68-156t156-68 151 63 63 153q0 88-68 155t-156 67-151-63-63-151z" horiz-adv-x="789" />

<glyph glyph-name="paper-plane" unicode="&#xe807;" d="M894 720q14 4 22-3t4-19q-2-6-72-310t-74-316q-2-14-14-19t-24 1l-248 134-30 16 22 26q388 420 394 426 4 4-1 9t-9 1l-550-402-112 44-190 76q-12 4-12 12t12 12q8 4 441 157t441 155z m-582-728l0 204 160-82q-130-116-142-128-18-14-18 6z" horiz-adv-x="921" />

<glyph glyph-name="cancel" unicode="&#xe808;" d="M0 90q0 36 26 62l195 195-195 196q-26 25-26 61t26 61 61 25 61-25l196-196 195 196q25 25 61 25t61-25 25-61-25-61l-195-196 195-195q25-26 25-62t-25-61q-25-25-61-25t-61 25l-195 195-196-195q-25-25-61-25t-61 25q-26 26-26 61z" horiz-adv-x="686.5" />

<glyph glyph-name="play-white" unicode="&#xe809;" d="M104 610l0-520q1 0 1 1t1 0l265 259-262 256-3 3t-2 1z m0 105q44 0 74-30l343-335q-207-201-345-335-30-30-72-30t-73 31-31 74l0 520q0 44 31 74t73 31z" horiz-adv-x="521" />

<glyph glyph-name="play-dark" unicode="&#xe80a;" d="M178 15q-30-30-74-30-43 0-73 31t-31 74l0 520q0 44 31 74t73 31q44 0 74-30l343-335q-206-201-343-335z" horiz-adv-x="521" />

<glyph glyph-name="down-open-big" unicode="&#xe80b;" d="M63 570l370-356 372 356q22 26 48 0 26-22 0-48l-396-392q-22-22-48 0l-396 392q-26 26 0 48 24 24 50 0z" horiz-adv-x="866" />

<glyph glyph-name="left-open-big" unicode="&#xe80c;" d="M452-20q26-26 0-48-26-26-48 0l-392 394q-24 24 0 50l392 394q22 26 48 0 26-22 0-48l-358-372z" horiz-adv-x="465" />

<glyph glyph-name="right-open-big" unicode="&#xe80d;" d="M13-20l358 370-358 372q-26 26 0 48 26 26 48 0l392-394q24-26 0-50l-392-394q-22-26-48 0-26 22 0 48z" horiz-adv-x="465" />

<glyph glyph-name="pause" unicode="&#xe80e;" d="M104 663q44 0 74-31t31-73l0-418q0-42-31-73t-74-30-74 30-30 73l0 418q0 44 30 74t74 30z m365 0q44 0 74-30t30-74l0-418q0-43-30-73t-74-30-74 30-30 73l0 418q0 44 30 74t74 30z" horiz-adv-x="573" />

<glyph glyph-name="fast-fw-outline" unicode="&#xe80f;" d="M573 559l0-418 216 210z m-10 119q36 0 65-26l310-301q-187-182-310-302-28-27-65-27-39 0-67 27t-27 67l0 468q0 39 27 67t67 27z m-459-119l0-418 216 210z m-10 119q36 0 65-26l310-301q-186-182-310-302-28-27-65-27-39 0-66 27t-28 67l0 468q0 39 28 67t66 27z" horiz-adv-x="938" />

<glyph glyph-name="fast-fw" unicode="&#xe810;" d="M628 652l310-301q-187-182-310-302-28-27-65-27-39 0-67 27t-27 67l0 468q0 39 27 67t67 27q36 0 65-26z m-469 0l310-301q-186-182-310-302-28-27-65-27-39 0-66 27t-28 67l0 468q0 39 28 67t66 27q36 0 65-26z" horiz-adv-x="938" />

<glyph glyph-name="rewind-outline" unicode="&#xe811;" d="M365 559l-216-208 216-210 0 418z m10 119q39 0 66-27t28-67l0-468q0-39-28-67t-66-27q-35 0-65 27l-310 302q186 181 310 301 26 26 65 26z m459-119l-216-208 216-210 0 418z m10 119q39 0 66-27t28-67l0-468q0-39-28-67t-66-27q-35 0-65 27l-310 302q186 181 310 301 26 26 65 26z" horiz-adv-x="938" />

<glyph glyph-name="rewind" unicode="&#xe812;" d="M375 678q39 0 66-27t28-67l0-468q0-39-28-67t-66-27q-35 0-65 27l-310 302q186 181 310 301 26 26 65 26z m469 0q39 0 66-27t28-67l0-468q0-39-28-67t-66-27q-35 0-65 27l-310 302q186 181 310 301 26 26 65 26z" horiz-adv-x="938" />

<glyph glyph-name="favorite-dark" unicode="&#xe813;" d="M550 833l134-314 340-30a27 27 0 0 0 15-48h0l-257-225 76-333a27 27 0 0 0-41-29l-293 175-293-175a27 27 0 0 0-40 29h0l76 333-258 225a27 27 0 0 0 17 48l339 30 134 314a27 27 0 0 0 51 0z" horiz-adv-x="1049" />

<glyph glyph-name="tag-white" unicode="&#xe815;" d="M103 850a95 95 0 0 1-103-83v-896a21 21 0 0 1 15-19 31 31 0 0 1 27 3l294 197 294-197a30 30 0 0 1 16-5 31 31 0 0 1 11 2 47 47 0 0 1 26 19c0 481 1 766-5 896a93 93 0 0 1-27 59 166 166 0 0 1-80 24z m517-83v-852l-267 180a31 31 0 0 1-34 0l-267-180v852a48 48 0 0 0 51 41h468c45 0 49-26 49-41z" horiz-adv-x="683" />

<glyph glyph-name="star-surah-dark" unicode="&#xe816;" d="M460 798c-21-21-53-52-71-70l-32-32h-203v-101l0-102-70-71c-39-39-71-71-71-72s32-33 71-72l70-71 0-102v-101h203l33-33c86-85 109-108 110-108s33 32 72 71l71 70 102 0h101v203l33 33c18 18 50 50 70 71s38 38 38 39-18 19-38 40-53 52-70 70l-33 33v203h-203l-34 34c-18 18-50 50-70 70s-38 37-39 37-19-18-40-39z" horiz-adv-x="1000" />

<glyph glyph-name="tag-dark" unicode="&#xe818;" d="M103 850a95 95 0 0 1-103-83v-896a21 21 0 0 1 15-19 31 31 0 0 1 27 3l294 197 293-197a30 30 0 0 1 17-5 31 31 0 0 1 11 2 47 47 0 0 1 26 19c0 481 0 766-5 896a93 93 0 0 1-27 59 166 166 0 0 1-80 24z" horiz-adv-x="683" />

<glyph glyph-name="flower" unicode="&#xe81c;" d="M606 847a107 107 0 0 1-81-75 241 241 0 0 1-7-85 52 52 0 0 0-6-41c-4-10-12-29-16-42l-9-23-9 31a404 404 0 0 1-39 92c-9 15-10 17-6 21a60 60 0 0 1 7 62 55 55 0 0 1-54 34 59 59 0 0 1-48-93 55 55 0 0 1 53-23l20 1 16-33a530 530 0 0 0 49-176c7-64 7-69-4-50a247 247 0 0 1-23 27 113 113 0 0 0-22 34c-16 42-49 85-79 99a75 75 0 0 1-43 9 169 169 0 0 1-101-36c-15-10-18-14-18-21a170 170 0 0 1 28-65c46-69 111-78 196-26 6 4 8 3 25-16 26-27 47-65 47-84 0-14-3-17-14-17a253 253 0 0 1-58-28 3 3 0 0 0-3-2 245 245 0 0 1-35-19l-32-18-32 5a96 96 0 0 1-53 0 214 214 0 0 1-101-58c-43-40-63-57-66-57-2 0-5 2-7 6-5 9-14 7-49-11-31-17-33-18-32-27 2-13 10-13 39 2a67 67 0 0 0 27 10c1-1 30-59 65-128l64-125-30-15a130 130 0 0 1-32-19 13 13 0 0 1 11-17c9 0 77 37 79 43a92 92 0 0 1-12 32 243 243 0 0 0-13 30 544 544 0 0 0 88 36 852 852 0 0 0 127 10c90 4 128 9 153 22 16 8 28 20 86 87 24 26 51 55 61 64 22 19 30 31 30 45 0 22-19 35-49 37l-19 1-49 38c-54 41-77 54-103 57-19 2-19 3-12 22a121 121 0 0 0 41 54c31 22 31 23 50 11a101 101 0 0 1 71-17c29 6 54 29 72 65a45 45 0 0 1 6 22c-3 7-35 30-53 36-38 15-63 10-91-18a172 172 0 0 1-28-38 70 70 0 0 0-29-32 196 196 0 0 1-29-24 50 50 0 0 0-12-10c-2 0-3 7-3 16s-1 30-3 46a148 148 0 0 0 3 62 442 442 0 0 0 31 94l7 14 40 2c47 2 66 7 89 26 29 23 45 71 42 125-2 30-3 36-10 39a350 350 0 0 1-99 0z m82-24a157 157 0 0 0 2-34 125 125 0 0 0-7-49c-14-39-43-57-94-59l-30-2 6 10a297 297 0 0 0 29 35 145 145 0 0 1 23 29 19 19 0 0 1-12 14c-5 0-33-27-48-48l-15-19v21c0 54 27 92 71 103a264 264 0 0 0 75-1z m-283-31a43 43 0 0 0 17-29 43 43 0 0 0-18-30 34 34 0 0 0-38 3 34 34 0 0 0 39 56z m-80-203a103 103 0 0 0 55-44 127 127 0 0 0 12-21c0-1-10 2-21 8-42 19-80 24-88 13-6-10 2-16 21-18a199 199 0 0 0 36-9c22-8 56-27 53-30a190 190 0 0 0-54-25 80 80 0 0 0-89 25c-15 17-38 56-38 65 0 7 44 31 69 37a76 76 0 0 0 44-1z m369-69c8-4 18-10 23-13l8-5-8-14c-16-28-35-42-58-42-13 0-45 11-45 15a126 126 0 0 0 28 11c26 9 27 10 27 18 0 14-6 15-34 6a145 145 0 0 0-26-6c-3 3 15 23 27 30a60 60 0 0 0 58 0z m-144-202a98 98 0 0 0 22-12 440 440 0 0 1 36-29c20-15 36-28 36-28 0-2-5-4-10-6a425 425 0 0 1-74-47c-15-11-27-19-28-19a30 30 0 0 0 0 13 46 46 0 0 1-4 26c-11 23-20 28-87 44-34 8-61 15-62 16-1 1 8 6 19 13 14 7 21 12 19 14s-1 3 0 2a89 89 0 0 1 27 10 98 98 0 0 0 62 13 95 95 0 0 0 45-10z m-240-54c36-6 176-40 184-44a31 31 0 0 0-4-53c-11-6-13-6-36-1a639 639 0 0 1-96 12 13 13 0 0 1 2-23c4-1 20-4 35-5s42-7 60-10a154 154 0 0 1 43-4c20 3 45 16 82 43 46 35 76 49 104 51 19 1 24 1 29-4a18 18 0 0 0 6-9 156 156 0 0 0-24-25c-13-13-46-48-73-78-27-31-53-59-59-63-20-16-46-20-192-27-74-4-94-8-146-29-22-9-41-16-41-15 0 0-20 38-44 84l-42 84 11 9c7 5 26 23 43 39a299 299 0 0 0 68 53 209 209 0 0 0 63 19c3 0 15-3 27-4z" horiz-adv-x="751" />

<glyph glyph-name="edit" unicode="&#xe81d;" d="M770 834a55 55 0 0 1-41 16 53 53 0 0 1-40-18l-90-94 253-244 91 95a56 56 0 0 1 15 41 54 54 0 0 1-17 40l-171 164z m-433-876c-33-11-67-21-100-32s-66-22-101-33c-79-26-122-40-132-43s-3 34 17 111l63 241 5 5 248-249 0 0z m-156 345l350 365 253-244-355-370-248 249z" horiz-adv-x="958" />

<glyph glyph-name="favorite-white" unicode="&#xe81f;" d="M550 833l134-314 340-30a27 27 0 0 0 15-48h0l-257-224 76-334a27 27 0 0 0-41-29l-293 175-293-175a27 27 0 0 0-40 29h0l76 333-258 225a27 27 0 0 0 17 48l339 30 134 314a27 27 0 0 0 51 0z m90-350l-116 270-115-270h0a27 27 0 0 0-23-17l-293-26 221-192a27 27 0 0 0 9-28l-65-286 252 150a27 27 0 0 0 28 1l253-151-66 286h0a27 27 0 0 0 9 27l221 193-291 26a27 27 0 0 0-24 17z" horiz-adv-x="1049" />

<glyph glyph-name="reader" unicode="&#xe820;" d="M823 70v481c0 9-11 16-25 16s-26-7-26-16v-481c0-9 11-17 26-17s25 8 25 17z m746 694a860 860 0 0 0-194 36 1206 1206 0 0 1-300 50c-124 0-199-40-241-74a253 253 0 0 1-36-37 253 253 0 0 1-37 37c-42 34-117 74-241 74a1206 1206 0 0 1-300-50 860 860 0 0 0-194-36c-14 0-26-9-26-19v-773c0-11 12-19 26-19a900 900 0 0 1 211 38 1155 1155 0 0 0 283 48 312 312 0 0 0 203-62 32 32 0 0 1 36-1 16 16 0 0 1 2 27c-42 34-117 74-241 74a1206 1206 0 0 1-300-50 1097 1097 0 0 0-168-35v735a1089 1089 0 0 1 185 37 1155 1155 0 0 0 283 48c199 0 251-118 253-123a29 29 0 0 1 49 0c1 1 53 123 253 123a1155 1155 0 0 0 284-48 1089 1089 0 0 1 185-37v-735a1097 1097 0 0 0-168 35 1206 1206 0 0 1-301 50c-124 0-199-40-241-74a16 16 0 0 1 2-27 32 32 0 0 1 36 1 312 312 0 0 0 203 62 1155 1155 0 0 0 284-48 900 900 0 0 1 210-38c15 0 26 9 26 19v773c0 10-11 19-26 19z m0-863c-54 0-122 24-194 49-90 31-193 67-300 67a315 315 0 0 1-233-91h-89a315 315 0 0 1-233 91c-106 0-209-36-300-67-72-25-140-49-194-49a26 26 0 1 1 0-51c63 0 135 25 211 51 87 30 185 64 283 64a262 262 0 0 0 203-82 26 26 0 0 1 19-9h111a26 26 0 0 1 19 9 262 262 0 0 0 203 82c98 0 197-34 284-64 76-26 147-51 210-51a26 26 0 0 1 0 51z" horiz-adv-x="1595" />

<glyph glyph-name="allah" unicode="&#xe821;" d="M342 840l-9-9-19 7c-23 9-29 7-40-11-11-17-56-90-93-151-17-29-36-60-42-70s-28-45-48-78-48-79-63-104a306 306 0 0 1-28-51 19 19 0 0 1 5-11 674 674 0 0 1 75-33c132-52 322-128 324-129 0 0-11-76-25-168-31-201-33-182 15-182h31l147 101 147 102 147-102 147-101h30c26 0 30 1 35 6a19 19 0 0 1 6 11c0 4-12 79-25 169s-25 164-25 165 80 32 175 69c221 87 223 88 226 95a19 19 0 0 1 2 12c-2 4-29 50-61 103s-94 155-138 227a1208 1208 0 0 1-87 134c-7 4-9 4-26-3l-19-7-9 9a23 23 0 0 1-19 10 734 734 0 0 1-92-33c-46-17-107-41-137-53s-69-27-89-35a338 338 0 0 0-41-14c-2 0-82 30-177 68-100 38-177 67-183 67a23 23 0 0 1-17-10z m95-75c32-12 107-42 165-64s111-42 115-42c9-1 41 11 242 90 56 22 102 39 104 39s35-52 73-115 83-136 100-164 30-50 30-51a320 320 0 0 0-44-20c-24-9-97-38-162-64-265-105-322-128-325-128-1 0-2 55-2 121a749 749 0 0 1-4 123 17 17 0 0 1-10 4 17 17 0 0 1-11-4 749 749 0 0 1-3-123c0-72-2-121-3-121s-56 21-120 47c-224 89-362 144-386 153a106 106 0 0 0-25 12c0 1 12 21 27 44s59 98 100 165 75 121 76 121 30-10 63-23z m-43-88c-9-14-5-16 115-62 60-24 113-43 116-43a14 14 0 0 1 11 18c-2 8-2 8-117 52-44 18-86 34-93 37-19 7-26 7-32-2z m530-32c-55-22-105-42-110-44-12-5-15-11-12-21 4-12 11-10 127 34 119 47 124 49 114 63a13 13 0 0 1-12 7c-4 0-52-18-107-39z m-564-45a17 17 0 0 1-1-19c3-4 221-90 229-90 12 0 17 19 7 26-11 7-218 86-225 86a16 16 0 0 1-10-3z m592-39c-59-23-109-44-111-45a15 15 0 0 1 9-25c4 0 215 81 226 87a16 16 0 0 1 2 22 16 16 0 0 1-11 3c-4 0-56-19-115-42z m-630-50a15 15 0 0 1-1-20 417 417 0 0 1 43-18c21-8 70-27 109-42a785 785 0 0 1 76-27 14 14 0 0 1 7 25c-12 6-221 87-225 87a15 15 0 0 1-9-5z m722-17c-30-12-79-32-110-44-43-17-56-23-58-28a14 14 0 0 1 11-18c7-1 6-1 103 36 38 15 82 32 97 38a281 281 0 0 1 30 13c9 8 0 25-12 25a598 598 0 0 1-61-22z" horiz-adv-x="1437" />

<glyph glyph-name="bookmark" unicode="&#xe822;" d="M103 850a95 95 0 0 1-103-83v-896a21 21 0 0 1 15-19 31 31 0 0 1 27 3l294 197 294-197a30 30 0 0 1 16-5 31 31 0 0 1 11 2 47 47 0 0 1 26 19c0 481 1 766-4 896a93 93 0 0 1-28 59 166 166 0 0 1-79 24z m517-83v-852l-267 180a31 31 0 0 1-33 0l-268-180v852a48 48 0 0 0 51 41h469c44 0 48-26 48-41z" horiz-adv-x="683" />

<glyph glyph-name="filter" unicode="&#xe823;" d="M746 617h31a20 20 0 1 1 0 40h-31a20 20 0 1 1 0-40z m349 207a48 48 0 0 1-43 26h-1004a50 50 0 0 1-43-26 48 48 0 0 1 5-50l422-531v-345a47 47 0 0 1 25-42 49 49 0 0 1 23-6 47 47 0 0 1 27 9l133 92a73 73 0 0 1 30 58v235l420 530a48 48 0 0 1 5 50z m-469-557a26 26 0 0 1-5-14v-243a26 26 0 0 0-9-20l-133-92v355a22 22 0 0 1-9 19l-270 339h434a24 24 0 1 1 0 48h-471l-115 143h1003z" horiz-adv-x="1100" />

<glyph glyph-name="share" unicode="&#xe829;" d="M771 558a146 146 0 1 0 146 146 146 146 0 0 0-146-146z m0 250a104 104 0 1 1 104-104 104 104 0 0 1-104 104z m0-958a146 146 0 1 0 146 146 146 146 0 0 0-146-146z m0 250a104 104 0 1 1 104-104 104 104 0 0 1-104 104z m-625 104a146 146 0 1 0 146 146 146 146 0 0 0-146-146z m0 250a104 104 0 1 1 104-104 104 104 0 0 1-104 104z m516-417a21 21 0 0 0-10 2l-408 231a21 21 0 0 0 21 37l407-231a21 21 0 0 0-10-39z m-407 354a21 21 0 0 0-11 39l408 231a21 21 0 0 0 20-37l-407-231a21 21 0 0 0-10-2z" horiz-adv-x="917" />

<glyph glyph-name="list" unicode="&#xe82a;" d="M1237 745h-842a26 26 0 1 1 0-53h842a26 26 0 1 1 0 53z m0-369h-842a26 26 0 1 1 0-52h842a26 26 0 0 1 0 52z m0-368h-842a26 26 0 1 1 0-53h842a26 26 0 1 1 0 53z m-1105 105a132 132 0 1 1 131-131 132 132 0 0 1-131 131z m0-210a79 79 0 1 0 79 79 79 79 0 0 0-79-79z m0 579a132 132 0 1 1 131-132 132 132 0 0 1-131 132z m0-211a79 79 0 1 0 79 79 79 79 0 0 0-79-79z m0 579a132 132 0 1 1 131-131 132 132 0 0 1-131 131z m0-210a79 79 0 1 0 79 79 79 79 0 0 0-79-79z" horiz-adv-x="1263" />

<glyph glyph-name="translate" unicode="&#xe82b;" d="M904 664h-376l-56 172a21 21 0 0 1-20 14h-356a96 96 0 0 1-96-96v-622a96 96 0 0 1 96-96h375l58-172a21 21 0 0 1 19-14h356a96 96 0 0 1 96 96v622a96 96 0 0 1-96 96z m-808-587a55 55 0 0 0-55 55v622a55 55 0 0 0 55 55h341l240-732h-581z m589 213c8-13 19-28 31-43-11-14-24-27-38-40l-57 172h17a523 523 0 0 1 47-89z m-3 89h121a533 533 0 0 0-60-100c-9 11-17 22-23 32a511 511 0 0 0-38 68z m-168-343h147l-105-125z m390-145h-312l129 152a21 21 0 0 1 3 21l-32 101a620 620 0 0 1 51 50 622 622 0 0 1 136-113 21 21 0 1 1 22 35 582 582 0 0 0-131 110 551 551 0 0 1 78 132h60a21 21 0 0 1 0 41h-146v34a21 21 0 1 1-41 0v-35h-113l-67 204h363a55 55 0 0 0 55-55v-622h0a55 55 0 0 0-55-55z m-487 570h-115a21 21 0 0 1 0-41h93a110 110 0 1 0-37 104 21 21 0 1 1 27 31 150 150 0 1 1 53-114 21 21 0 0 1-21 20z m-23-297h-9a21 21 0 1 1 0-41h9a21 21 0 1 1 0 41z m-75 0h-198a21 21 0 0 1 0-41h198a21 21 0 0 1 0 41z" horiz-adv-x="1000" />

<glyph glyph-name="trash" unicode="&#xe82c;" d="M40 776h271v24a18 18 0 0 0 0 2 50 50 0 0 0 15 33l0 0a50 50 0 0 0 35 15h0v0h162a20 20 0 0 0 3 0 50 50 0 0 0 48-50v0h0v-24h268a22 22 0 0 0 3 0 40 40 0 0 0 25-11v0a39 39 0 0 0 11-28v0h0v-88a22 22 0 0 0-22-22h-837a22 22 0 0 0-22 22v88a19 19 0 0 0 0 2v1a40 40 0 0 0 12 25h0a39 39 0 0 0 27 11h0v0z m593-326h-48v-456h48v456z m-157 0h-49v-456h49v456z m-158 0h-48v-456h49v456z m-230 143h711l3 0 1 0 1 0h0l1 0a50 50 0 0 0 29-14 45 45 0 0 0 14-32 22 22 0 0 0 0-3v0l0-2-60-645 0-1h0l0-1-1-2h0v0a56 56 0 0 0-1-8l0 0h0l0 0-1 0v-1a52 52 0 0 0-3-8 48 48 0 0 0-43-26h-591l-2 0h-1a48 48 0 0 0-10 2 46 46 0 0 0-10 4h0a52 52 0 0 0-26 41l-59 646 0 1 0 2v0h0a45 45 0 0 0 14 33 51 51 0 0 0 30 14h1v0l2 0h1v0z m711-43h-711v0h-1a6 6 0 0 1-3-2 3 3 0 0 1-1-1h0l0-1 59-645h0v0a8 8 0 0 1 4-7h0l0 0 1 0h592a5 5 0 0 1 4 3l1 1 0 2 0 1h0l61 645v1a2 2 0 0 1-1 1 7 7 0 0 1-4 2z m1 0h0z m5-4h0z m43-3v0z m-515 190h-290v-63h795v63h-286a22 22 0 0 0-22 22v45h0a7 7 0 0 1-2 5 7 7 0 0 1-4 2h-163v0a7 7 0 0 1-5-2h0a8 8 0 0 1-2-4l0-1v-45a22 22 0 0 0-21-22z" horiz-adv-x="881" />

<glyph glyph-name="mic" unicode="&#xf130;" d="M643 457v-71q0-124-82-215t-204-104v-74h143q15 0 25-11t11-25-11-25-25-11h-357q-15 0-25 11t-11 25 11 25 25 11h143v74q-121 13-204 104t-82 215v71q0 15 11 25t25 11 25-11 10-25v-71q0-103 74-177t176-73 177 73 73 177v71q0 15 11 25t25 11 25-11 11-25z m-143 214v-285q0-74-52-126t-127-53-126 53-52 126v285q0 74 52 127t126 52 127-52 52-127z" horiz-adv-x="642.9" />
</font>
</defs>
</svg>
