<svg xmlns="http://www.w3.org/2000/svg" width="11.884" height="11.333" viewBox="0 0 11.884 11.333">
  <g id="star-empty" transform="translate(0 -0.001)">
    <path id="Path_109" data-name="Path 109" d="M6.228.191l1.52,3.558,3.854.346a.309.309,0,0,1,.177.54h0L8.863,7.181l.862,3.774a.31.31,0,0,1-.471.328L5.942,9.3,2.62,11.289a.309.309,0,0,1-.46-.335h0l.862-3.774L.106,4.635a.309.309,0,0,1,.187-.541l3.844-.345L5.657.189a.31.31,0,0,1,.571,0ZM7.25,4.161,5.942,1.1,4.634,4.161h0a.309.309,0,0,1-.258.187l-3.318.3,2.5,2.18a.31.31,0,0,1,.111.313l-.742,3.247L5.778,8.681a.309.309,0,0,1,.323,0L8.96,10.387,8.218,7.139h0a.309.309,0,0,1,.1-.3l2.51-2.192-3.3-.3a.31.31,0,0,1-.275-.188Z" transform="translate(0 0)" fill="#ebbd77"/>
  </g>
</svg>
