<svg xmlns="http://www.w3.org/2000/svg" width="14.315" height="11.333" viewBox="0 0 14.315 11.333">
  <g id="list" transform="translate(0 -53.333)">
    <g id="Group_29" data-name="Group 29" transform="translate(4.175 54.526)">
      <g id="Group_28" data-name="Group 28">
        <path id="Path_63" data-name="Path 63" d="M159.175,96h-9.544a.3.3,0,1,0,0,.6h9.544a.3.3,0,0,0,0-.6Z" transform="translate(-149.333 -96)" fill="#ebbd77"/>
      </g>
    </g>
    <g id="Group_31" data-name="Group 31" transform="translate(4.175 58.701)">
      <g id="Group_30" data-name="Group 30">
        <path id="Path_64" data-name="Path 64" d="M159.175,245.333h-9.544a.3.3,0,0,0,0,.6h9.544a.3.3,0,0,0,0-.6Z" transform="translate(-149.333 -245.333)" fill="#ebbd77"/>
      </g>
    </g>
    <g id="Group_33" data-name="Group 33" transform="translate(4.175 62.877)">
      <g id="Group_32" data-name="Group 32">
        <path id="Path_65" data-name="Path 65" d="M159.175,394.667h-9.544a.3.3,0,0,0,0,.6h9.544a.3.3,0,0,0,0-.6Z" transform="translate(-149.333 -394.667)" fill="#ebbd77"/>
      </g>
    </g>
    <g id="Group_35" data-name="Group 35" transform="translate(0 61.684)">
      <g id="Group_34" data-name="Group 34">
        <path id="Path_66" data-name="Path 66" d="M1.491,352a1.491,1.491,0,1,0,1.491,1.491A1.493,1.493,0,0,0,1.491,352Zm0,2.386a.895.895,0,1,1,.895-.895A.9.9,0,0,1,1.491,354.386Z" transform="translate(0 -352)" fill="#ebbd77"/>
      </g>
    </g>
    <g id="Group_37" data-name="Group 37" transform="translate(0 57.508)">
      <g id="Group_36" data-name="Group 36">
        <path id="Path_67" data-name="Path 67" d="M1.491,202.667a1.491,1.491,0,1,0,1.491,1.491A1.493,1.493,0,0,0,1.491,202.667Zm0,2.386a.895.895,0,1,1,.895-.895A.9.9,0,0,1,1.491,205.053Z" transform="translate(0 -202.667)" fill="#ebbd77"/>
      </g>
    </g>
    <g id="Group_39" data-name="Group 39" transform="translate(0 53.333)">
      <g id="Group_38" data-name="Group 38">
        <path id="Path_68" data-name="Path 68" d="M1.491,53.333a1.491,1.491,0,1,0,1.491,1.491A1.493,1.493,0,0,0,1.491,53.333Zm0,2.386a.895.895,0,1,1,.895-.895A.9.9,0,0,1,1.491,55.719Z" transform="translate(0 -53.333)" fill="#ebbd77"/>
      </g>
    </g>
  </g>
</svg>
