<svg xmlns="http://www.w3.org/2000/svg" width="8.801" height="11.61" viewBox="0 0 8.801 11.61">
  <path id="Path_52" data-name="Path 52" d="M69.872,4.553,63.862.327a1.337,1.337,0,0,0-1.434-.2,1.325,1.325,0,0,0-.621,1.242v8.878a1.325,1.325,0,0,0,.621,1.242,1.076,1.076,0,0,0,.5.115,2.265,2.265,0,0,0,.932-.272l6.01-4.226a1.548,1.548,0,0,0,.736-1.281A1.539,1.539,0,0,0,69.872,4.553Zm-.467,1.9L63.4,10.678a.583.583,0,0,1-.621.154.639.639,0,0,1-.234-.583V1.371c0-.311.077-.5.234-.583A.231.231,0,0,1,62.928.75a.817.817,0,0,1,.5.2l6.01,4.226a.786.786,0,0,1,.387.621A.842.842,0,0,1,69.4,6.452Z" transform="translate(-61.807 0)" fill="#ebbd77"/>
</svg>
